<?xml version="1.0" encoding="UTF-8"?>
<svg version="1.1" xmlns="http://www.w3.org/2000/svg" width="1024" height="1024">
<path d="M0 0 C337.92 0 675.84 0 1024 0 C1024 337.92 1024 675.84 1024 1024 C686.08 1024 348.16 1024 0 1024 C0 686.08 0 348.16 0 0 Z " fill="#E9E9E9" transform="translate(0,0)"/>
<path d="M0 0 C1.7491555 -0.00592246 3.49830695 -0.0131748 5.24745178 -0.02168274 C8.89785015 -0.03350607 12.5476366 -0.0269511 16.19799805 -0.00756836 C20.84596851 0.01530601 25.49210908 -0.0114747 30.13989925 -0.05263042 C33.74768701 -0.07836522 37.35504598 -0.07558615 40.96289253 -0.06473732 C42.6750918 -0.06326374 44.38732612 -0.07078679 46.09943962 -0.0879879 C58.43211561 -0.19180556 68.1620062 1.34100422 77.78515625 9.88671875 C86.49270596 19.70642126 86.60942587 30.45942771 86.546875 42.8515625 C86.55279746 44.600718 86.5600498 46.34986945 86.56855774 48.09901428 C86.58038107 51.74941265 86.5738261 55.3991991 86.55444336 59.04956055 C86.53156899 63.69753101 86.5583497 68.34367158 86.59950542 72.99146175 C86.62524022 76.59924951 86.62246115 80.20660848 86.61161232 83.81445503 C86.61013874 85.5266543 86.61766179 87.23888862 86.6348629 88.95100212 C86.7398768 101.42578149 85.16352451 111.02513545 76.47265625 120.69921875 C69.60251096 126.94480538 62.41760418 128.83286357 53.33203125 128.90795898 C52.58019058 128.91774277 51.82834991 128.92752655 51.0537262 128.93760681 C48.56838728 128.9674864 46.08310222 128.98893242 43.59765625 129.0078125 C42.74472992 129.01438433 41.89180359 129.02095615 41.01303101 129.02772713 C36.49291645 129.06029746 31.97282512 129.08474704 27.45263672 129.10424805 C23.72995224 129.12200949 20.00803263 129.15674907 16.28564453 129.20678711 C11.77459293 129.26734244 7.26424625 129.2977723 2.75280762 129.30742073 C1.04333283 129.31592097 -0.6661259 129.33460305 -2.37536621 129.36416435 C-14.75424238 129.56662715 -24.42191917 128.09381247 -34.08984375 119.51171875 C-42.79739346 109.69201624 -42.91411337 98.93900979 -42.8515625 86.546875 C-42.85748496 84.7977195 -42.8647373 83.04856805 -42.87324524 81.29942322 C-42.88506857 77.64902485 -42.8785136 73.9992384 -42.85913086 70.34887695 C-42.83625649 65.70090649 -42.8630372 61.05476592 -42.90419292 56.40697575 C-42.92992772 52.79918799 -42.92714865 49.19182902 -42.91629982 45.58398247 C-42.91482624 43.8717832 -42.92234929 42.15954888 -42.9395504 40.44743538 C-43.04336806 28.11475939 -41.51055828 18.3848688 -32.96484375 8.76171875 C-23.14514124 0.05416904 -12.39213479 -0.06255087 0 0 Z " fill="#92B073" transform="translate(565.15234375,372.30078125)"/>
<path d="M0 0 C1.73152312 -0.00083055 3.46304615 -0.00329695 5.19456482 -0.00730896 C8.806305 -0.01015251 12.4174201 0.00439322 16.02905273 0.03198242 C20.63430573 0.06608862 25.23844433 0.06002475 29.84375095 0.04131985 C33.41368227 0.0307001 36.98335884 0.03973215 40.55326653 0.05470467 C42.25034768 0.05984879 43.94745586 0.05945103 45.64453316 0.05315971 C57.9118338 0.0247404 67.94527342 0.94697236 77.2421875 9.69921875 C83.33104202 16.39831482 86.28992113 23.3030317 86.31835938 32.34985352 C86.33325409 33.49246391 86.33325409 33.49246391 86.34844971 34.65815735 C86.37758089 37.17057974 86.39128138 39.68274916 86.40234375 42.1953125 C86.41082588 43.48987523 86.41082588 43.48987523 86.41947937 44.81059074 C86.44942788 49.38260999 86.46790592 53.95450373 86.4765625 58.52661133 C86.48749421 63.22167856 86.53547615 67.91557462 86.59250641 72.61027622 C86.6299969 76.2437205 86.64018302 79.87689015 86.64323425 83.5105114 C86.64924053 85.23950503 86.66513761 86.96849657 86.69160461 88.69729805 C86.86826265 101.12920966 85.42687793 110.85474685 76.80859375 120.56640625 C66.98889124 129.27395596 56.23588479 129.39067587 43.84375 129.328125 C42.0945945 129.33404746 40.34544305 129.3412998 38.59629822 129.34980774 C34.94589985 129.36163107 31.2961134 129.3550761 27.64575195 129.33569336 C22.99778149 129.31281899 18.35164092 129.3395997 13.70385075 129.38075542 C10.09606299 129.40649022 6.48870402 129.40371115 2.88085747 129.39286232 C1.1686582 129.39138874 -0.54357612 129.39891179 -2.25568962 129.4161129 C-14.58836561 129.51993056 -24.3182562 127.98712078 -33.94140625 119.44140625 C-42.64895596 109.62170374 -42.76567587 98.86869729 -42.703125 86.4765625 C-42.70904746 84.727407 -42.7162998 82.97825555 -42.72480774 81.22911072 C-42.73663107 77.57871235 -42.7300761 73.9289259 -42.71069336 70.27856445 C-42.68781899 65.63059399 -42.7145997 60.98445342 -42.75575542 56.33666325 C-42.78149022 52.72887549 -42.77871115 49.12151652 -42.76786232 45.51366997 C-42.76638874 43.8014707 -42.77391179 42.08923638 -42.7911129 40.37712288 C-42.89493056 28.04444689 -41.36212078 18.3145563 -32.81640625 8.69140625 C-23.1245187 0.09591811 -12.26393857 -0.10725897 0 0 Z " fill="#92AF73" transform="translate(565.00390625,222.37109375)"/>
<path d="M0 0 C1.73152312 -0.00083055 3.46304615 -0.00329695 5.19456482 -0.00730896 C8.806305 -0.01015251 12.4174201 0.00439322 16.02905273 0.03198242 C20.63430573 0.06608862 25.23844433 0.06002475 29.84375095 0.04131985 C33.41368227 0.0307001 36.98335884 0.03973215 40.55326653 0.05470467 C42.25034768 0.05984879 43.94745586 0.05945103 45.64453316 0.05315971 C57.9118338 0.0247404 67.94527342 0.94697236 77.2421875 9.69921875 C83.33104202 16.39831482 86.28992113 23.3030317 86.31835938 32.34985352 C86.33325409 33.49246391 86.33325409 33.49246391 86.34844971 34.65815735 C86.37758089 37.17057974 86.39128138 39.68274916 86.40234375 42.1953125 C86.41082588 43.48987523 86.41082588 43.48987523 86.41947937 44.81059074 C86.44942788 49.38260999 86.46790592 53.95450373 86.4765625 58.52661133 C86.48749421 63.22167856 86.53547615 67.91557462 86.59250641 72.61027622 C86.6299969 76.2437205 86.64018302 79.87689015 86.64323425 83.5105114 C86.64924053 85.23950503 86.66513761 86.96849657 86.69160461 88.69729805 C86.87029277 101.27207462 85.38518098 110.86629297 76.62109375 120.62890625 C69.75094846 126.87449288 62.56604168 128.76255107 53.48046875 128.83764648 C52.72862808 128.84743027 51.97678741 128.85721405 51.2021637 128.86729431 C48.71682478 128.8971739 46.23153972 128.91861992 43.74609375 128.9375 C42.89316742 128.94407183 42.04024109 128.95064365 41.16146851 128.95741463 C36.64135395 128.98998496 32.12126262 129.01443454 27.60107422 129.03393555 C23.87838974 129.05169699 20.15647013 129.08643657 16.43408203 129.13647461 C11.92303043 129.19702994 7.41268375 129.2274598 2.90124512 129.23710823 C1.19177033 129.24560847 -0.5176884 129.26429055 -2.22692871 129.29385185 C-14.60580488 129.49631465 -24.27348167 128.02349997 -33.94140625 119.44140625 C-42.64895596 109.62170374 -42.76567587 98.86869729 -42.703125 86.4765625 C-42.70904746 84.727407 -42.7162998 82.97825555 -42.72480774 81.22911072 C-42.73663107 77.57871235 -42.7300761 73.9289259 -42.71069336 70.27856445 C-42.68781899 65.63059399 -42.7145997 60.98445342 -42.75575542 56.33666325 C-42.78149022 52.72887549 -42.77871115 49.12151652 -42.76786232 45.51366997 C-42.76638874 43.8014707 -42.77391179 42.08923638 -42.7911129 40.37712288 C-42.89493056 28.04444689 -41.36212078 18.3145563 -32.81640625 8.69140625 C-23.1245187 0.09591811 -12.26393857 -0.10725897 0 0 Z " fill="#92AF73" transform="translate(565.00390625,522.37109375)"/>
<path d="M0 0 C1.73152312 -0.00083055 3.46304615 -0.00329695 5.19456482 -0.00730896 C8.806305 -0.01015251 12.4174201 0.00439322 16.02905273 0.03198242 C20.63430573 0.06608862 25.23844433 0.06002475 29.84375095 0.04131985 C33.41368227 0.0307001 36.98335884 0.03973215 40.55326653 0.05470467 C42.25034768 0.05984879 43.94745586 0.05945103 45.64453316 0.05315971 C57.9118338 0.0247404 67.94527342 0.94697236 77.2421875 9.69921875 C83.33104202 16.39831482 86.28992113 23.3030317 86.31835938 32.34985352 C86.33325409 33.49246391 86.33325409 33.49246391 86.34844971 34.65815735 C86.37758089 37.17057974 86.39128138 39.68274916 86.40234375 42.1953125 C86.41082588 43.48987523 86.41082588 43.48987523 86.41947937 44.81059074 C86.44942788 49.38260999 86.46790592 53.95450373 86.4765625 58.52661133 C86.48749421 63.22167856 86.53547615 67.91557462 86.59250641 72.61027622 C86.6299969 76.2437205 86.64018302 79.87689015 86.64323425 83.5105114 C86.64924053 85.23950503 86.66513761 86.96849657 86.69160461 88.69729805 C86.87029277 101.27207462 85.38518098 110.86629297 76.62109375 120.62890625 C69.75094846 126.87449288 62.56604168 128.76255107 53.48046875 128.83764648 C52.72862808 128.84743027 51.97678741 128.85721405 51.2021637 128.86729431 C48.71682478 128.8971739 46.23153972 128.91861992 43.74609375 128.9375 C42.89316742 128.94407183 42.04024109 128.95064365 41.16146851 128.95741463 C36.64135395 128.98998496 32.12126262 129.01443454 27.60107422 129.03393555 C23.87838974 129.05169699 20.15647013 129.08643657 16.43408203 129.13647461 C11.92303043 129.19702994 7.41268375 129.2274598 2.90124512 129.23710823 C1.19177033 129.24560847 -0.5176884 129.26429055 -2.22692871 129.29385185 C-14.60580488 129.49631465 -24.27348167 128.02349997 -33.94140625 119.44140625 C-42.64895596 109.62170374 -42.76567587 98.86869729 -42.703125 86.4765625 C-42.70904746 84.727407 -42.7162998 82.97825555 -42.72480774 81.22911072 C-42.73663107 77.57871235 -42.7300761 73.9289259 -42.71069336 70.27856445 C-42.68781899 65.63059399 -42.7145997 60.98445342 -42.75575542 56.33666325 C-42.78149022 52.72887549 -42.77871115 49.12151652 -42.76786232 45.51366997 C-42.76638874 43.8014707 -42.77391179 42.08923638 -42.7911129 40.37712288 C-42.89493056 28.04444689 -41.36212078 18.3145563 -32.81640625 8.69140625 C-23.1245187 0.09591811 -12.26393857 -0.10725897 0 0 Z " fill="#92AF73" transform="translate(415.00390625,522.37109375)"/>
<path d="M0 0 C1.73152312 -0.00083055 3.46304615 -0.00329695 5.19456482 -0.00730896 C8.806305 -0.01015251 12.4174201 0.00439322 16.02905273 0.03198242 C20.63430573 0.06608862 25.23844433 0.06002475 29.84375095 0.04131985 C33.41368227 0.0307001 36.98335884 0.03973215 40.55326653 0.05470467 C42.25034768 0.05984879 43.94745586 0.05945103 45.64453316 0.05315971 C57.9118338 0.0247404 67.94527342 0.94697236 77.2421875 9.69921875 C83.33104202 16.39831482 86.28992113 23.3030317 86.31835938 32.34985352 C86.33325409 33.49246391 86.33325409 33.49246391 86.34844971 34.65815735 C86.37758089 37.17057974 86.39128138 39.68274916 86.40234375 42.1953125 C86.41082588 43.48987523 86.41082588 43.48987523 86.41947937 44.81059074 C86.44942788 49.38260999 86.46790592 53.95450373 86.4765625 58.52661133 C86.48749421 63.22167856 86.53547615 67.91557462 86.59250641 72.61027622 C86.6299969 76.2437205 86.64018302 79.87689015 86.64323425 83.5105114 C86.64924053 85.23950503 86.66513761 86.96849657 86.69160461 88.69729805 C86.87029277 101.27207462 85.38518098 110.86629297 76.62109375 120.62890625 C69.75094846 126.87449288 62.56604168 128.76255107 53.48046875 128.83764648 C52.72862808 128.84743027 51.97678741 128.85721405 51.2021637 128.86729431 C48.71682478 128.8971739 46.23153972 128.91861992 43.74609375 128.9375 C42.89316742 128.94407183 42.04024109 128.95064365 41.16146851 128.95741463 C36.64135395 128.98998496 32.12126262 129.01443454 27.60107422 129.03393555 C23.87838974 129.05169699 20.15647013 129.08643657 16.43408203 129.13647461 C11.92303043 129.19702994 7.41268375 129.2274598 2.90124512 129.23710823 C1.19177033 129.24560847 -0.5176884 129.26429055 -2.22692871 129.29385185 C-14.60580488 129.49631465 -24.27348167 128.02349997 -33.94140625 119.44140625 C-42.64895596 109.62170374 -42.76567587 98.86869729 -42.703125 86.4765625 C-42.70904746 84.727407 -42.7162998 82.97825555 -42.72480774 81.22911072 C-42.73663107 77.57871235 -42.7300761 73.9289259 -42.71069336 70.27856445 C-42.68781899 65.63059399 -42.7145997 60.98445342 -42.75575542 56.33666325 C-42.78149022 52.72887549 -42.77871115 49.12151652 -42.76786232 45.51366997 C-42.76638874 43.8014707 -42.77391179 42.08923638 -42.7911129 40.37712288 C-42.89493056 28.04444689 -41.36212078 18.3145563 -32.81640625 8.69140625 C-23.1245187 0.09591811 -12.26393857 -0.10725897 0 0 Z " fill="#92AF73" transform="translate(715.00390625,222.37109375)"/>
<path d="M0 0 C1.73152312 -0.00083055 3.46304615 -0.00329695 5.19456482 -0.00730896 C8.806305 -0.01015251 12.4174201 0.00439322 16.02905273 0.03198242 C20.63430573 0.06608862 25.23844433 0.06002475 29.84375095 0.04131985 C33.41368227 0.0307001 36.98335884 0.03973215 40.55326653 0.05470467 C42.25034768 0.05984879 43.94745586 0.05945103 45.64453316 0.05315971 C57.9118338 0.0247404 67.94527342 0.94697236 77.2421875 9.69921875 C83.33104202 16.39831482 86.28992113 23.3030317 86.31835938 32.34985352 C86.33325409 33.49246391 86.33325409 33.49246391 86.34844971 34.65815735 C86.37758089 37.17057974 86.39128138 39.68274916 86.40234375 42.1953125 C86.41082588 43.48987523 86.41082588 43.48987523 86.41947937 44.81059074 C86.44942788 49.38260999 86.46790592 53.95450373 86.4765625 58.52661133 C86.48749421 63.22167856 86.53547615 67.91557462 86.59250641 72.61027622 C86.6299969 76.2437205 86.64018302 79.87689015 86.64323425 83.5105114 C86.64924053 85.23950503 86.66513761 86.96849657 86.69160461 88.69729805 C86.87029277 101.27207462 85.38518098 110.86629297 76.62109375 120.62890625 C69.75094846 126.87449288 62.56604168 128.76255107 53.48046875 128.83764648 C52.72862808 128.84743027 51.97678741 128.85721405 51.2021637 128.86729431 C48.71682478 128.8971739 46.23153972 128.91861992 43.74609375 128.9375 C42.89316742 128.94407183 42.04024109 128.95064365 41.16146851 128.95741463 C36.64135395 128.98998496 32.12126262 129.01443454 27.60107422 129.03393555 C23.87838974 129.05169699 20.15647013 129.08643657 16.43408203 129.13647461 C11.92303043 129.19702994 7.41268375 129.2274598 2.90124512 129.23710823 C1.19177033 129.24560847 -0.5176884 129.26429055 -2.22692871 129.29385185 C-14.60580488 129.49631465 -24.27348167 128.02349997 -33.94140625 119.44140625 C-42.64895596 109.62170374 -42.76567587 98.86869729 -42.703125 86.4765625 C-42.70904746 84.727407 -42.7162998 82.97825555 -42.72480774 81.22911072 C-42.73663107 77.57871235 -42.7300761 73.9289259 -42.71069336 70.27856445 C-42.68781899 65.63059399 -42.7145997 60.98445342 -42.75575542 56.33666325 C-42.78149022 52.72887549 -42.77871115 49.12151652 -42.76786232 45.51366997 C-42.76638874 43.8014707 -42.77391179 42.08923638 -42.7911129 40.37712288 C-42.89493056 28.04444689 -41.36212078 18.3145563 -32.81640625 8.69140625 C-23.1245187 0.09591811 -12.26393857 -0.10725897 0 0 Z " fill="#92AF73" transform="translate(715.00390625,72.37109375)"/>
<path d="M0 0 C1.73152312 -0.00083055 3.46304615 -0.00329695 5.19456482 -0.00730896 C8.806305 -0.01015251 12.4174201 0.00439322 16.02905273 0.03198242 C20.63430573 0.06608862 25.23844433 0.06002475 29.84375095 0.04131985 C33.41368227 0.0307001 36.98335884 0.03973215 40.55326653 0.05470467 C42.25034768 0.05984879 43.94745586 0.05945103 45.64453316 0.05315971 C57.9118338 0.0247404 67.94527342 0.94697236 77.2421875 9.69921875 C83.31222697 16.37761407 86.29822266 23.26551807 86.28662109 32.28979492 C86.29333832 33.0449942 86.30005554 33.80019348 86.30697632 34.57827759 C86.32592773 37.06787759 86.32987958 39.5572074 86.33203125 42.046875 C86.33846306 43.78697315 86.34519171 45.52707023 86.35220337 47.26716614 C86.36417036 50.91454573 86.36788498 54.56183068 86.36669922 58.20922852 C86.3664965 62.86163556 86.39375226 67.51342854 86.42824364 72.16569042 C86.4505902 75.76130404 86.45453433 79.35677196 86.45347977 82.95244789 C86.45582585 84.66630473 86.46459288 86.3801662 86.4801445 88.09395409 C86.5817094 100.44673553 85.75532198 110.51192451 76.921875 119.875 C69.96658847 126.20953073 62.65473112 128.9210714 53.25341797 128.95117188 C52.50128525 128.96110168 51.74915253 128.97103149 50.97422791 128.98126221 C48.49970758 129.0103347 46.02544392 129.02408269 43.55078125 129.03515625 C42.69968906 129.040811 41.84859688 129.04646576 40.97171402 129.05229187 C36.46452863 129.0822135 31.95747014 129.10070954 27.45019531 129.109375 C22.82353131 129.12031394 18.19805359 129.16831899 13.57176018 129.22531891 C9.98892981 129.26281039 6.40637791 129.27299549 2.82336807 129.27604675 C1.11949326 129.28205098 -0.58437956 129.2979409 -2.28805923 129.32441711 C-14.77604496 129.50458162 -24.31476289 127.95688275 -34.00390625 119.25390625 C-40.24949288 112.38376096 -42.13755107 105.19885418 -42.21264648 96.11328125 C-42.22243027 95.36144058 -42.23221405 94.60959991 -42.24229431 93.8349762 C-42.2721739 91.34963728 -42.29361992 88.86435222 -42.3125 86.37890625 C-42.31907183 85.52597992 -42.32564365 84.67305359 -42.33241463 83.79428101 C-42.36498496 79.27416645 -42.38943454 74.75407512 -42.40893555 70.23388672 C-42.42669699 66.51120224 -42.46143657 62.78928263 -42.51147461 59.06689453 C-42.57202994 54.55584293 -42.6024598 50.04549625 -42.61210823 45.53405762 C-42.62060847 43.82458283 -42.63929055 42.1151241 -42.66885185 40.40588379 C-42.87131465 28.02700762 -41.39849997 18.35933083 -32.81640625 8.69140625 C-23.1245187 0.09591811 -12.26393857 -0.10725897 0 0 Z " fill="#E9B03C" transform="translate(715.00390625,522.37109375)"/>
<path d="M0 0 C1.73152312 -0.00083055 3.46304615 -0.00329695 5.19456482 -0.00730896 C8.806305 -0.01015251 12.4174201 0.00439322 16.02905273 0.03198242 C20.63430573 0.06608862 25.23844433 0.06002475 29.84375095 0.04131985 C33.41368227 0.0307001 36.98335884 0.03973215 40.55326653 0.05470467 C42.25034768 0.05984879 43.94745586 0.05945103 45.64453316 0.05315971 C57.9118338 0.0247404 67.94527342 0.94697236 77.2421875 9.69921875 C83.31222697 16.37761407 86.29822266 23.26551807 86.28662109 32.28979492 C86.29333832 33.0449942 86.30005554 33.80019348 86.30697632 34.57827759 C86.32592773 37.06787759 86.32987958 39.5572074 86.33203125 42.046875 C86.33846306 43.78697315 86.34519171 45.52707023 86.35220337 47.26716614 C86.36417036 50.91454573 86.36788498 54.56183068 86.36669922 58.20922852 C86.3664965 62.86163556 86.39375226 67.51342854 86.42824364 72.16569042 C86.4505902 75.76130404 86.45453433 79.35677196 86.45347977 82.95244789 C86.45582585 84.66630473 86.46459288 86.3801662 86.4801445 88.09395409 C86.5817094 100.44673553 85.75532198 110.51192451 76.921875 119.875 C69.96658847 126.20953073 62.65473112 128.9210714 53.25341797 128.95117188 C52.50128525 128.96110168 51.74915253 128.97103149 50.97422791 128.98126221 C48.49970758 129.0103347 46.02544392 129.02408269 43.55078125 129.03515625 C42.69968906 129.040811 41.84859688 129.04646576 40.97171402 129.05229187 C36.46452863 129.0822135 31.95747014 129.10070954 27.45019531 129.109375 C22.82353131 129.12031394 18.19805359 129.16831899 13.57176018 129.22531891 C9.98892981 129.26281039 6.40637791 129.27299549 2.82336807 129.27604675 C1.11949326 129.28205098 -0.58437956 129.2979409 -2.28805923 129.32441711 C-14.77604496 129.50458162 -24.31476289 127.95688275 -34.00390625 119.25390625 C-40.24949288 112.38376096 -42.13755107 105.19885418 -42.21264648 96.11328125 C-42.22243027 95.36144058 -42.23221405 94.60959991 -42.24229431 93.8349762 C-42.2721739 91.34963728 -42.29361992 88.86435222 -42.3125 86.37890625 C-42.31907183 85.52597992 -42.32564365 84.67305359 -42.33241463 83.79428101 C-42.36498496 79.27416645 -42.38943454 74.75407512 -42.40893555 70.23388672 C-42.42669699 66.51120224 -42.46143657 62.78928263 -42.51147461 59.06689453 C-42.57202994 54.55584293 -42.6024598 50.04549625 -42.61210823 45.53405762 C-42.62060847 43.82458283 -42.63929055 42.1151241 -42.66885185 40.40588379 C-42.87131465 28.02700762 -41.39849997 18.35933083 -32.81640625 8.69140625 C-23.1245187 0.09591811 -12.26393857 -0.10725897 0 0 Z " fill="#E9B03C" transform="translate(715.00390625,372.37109375)"/>
<path d="M0 0 C0.74529968 -0.0065712 1.49059937 -0.0131424 2.25848389 -0.01991272 C4.7209891 -0.03959428 7.18343336 -0.05129899 9.64599609 -0.0612793 C10.9125812 -0.06739259 10.9125812 -0.06739259 12.20475388 -0.07362938 C16.67719018 -0.09447173 21.14959599 -0.1087794 25.62207031 -0.11816406 C30.22178544 -0.12920354 34.8210135 -0.16358001 39.42055702 -0.20333576 C42.97411951 -0.22959465 46.52756776 -0.23786425 50.08121872 -0.24144554 C51.77554984 -0.24629033 53.46987658 -0.25784361 55.16411209 -0.27648354 C67.37366179 -0.40242601 77.41717333 0.37366219 86.72021484 9.1105957 C93.17722524 16.42485373 95.68453316 23.03587545 95.72143555 32.63256836 C95.72800674 33.37786804 95.73457794 34.12316772 95.74134827 34.89105225 C95.76102983 37.35355746 95.77273454 39.81600172 95.78271484 42.27856445 C95.78679037 43.12295452 95.7908659 43.96734459 95.79506493 44.83732224 C95.81590728 49.30975854 95.83021494 53.78216435 95.83959961 58.25463867 C95.85063909 62.8543538 95.88501556 67.45358186 95.92477131 72.05312538 C95.95103019 75.60668787 95.9592998 79.16013612 95.96288109 82.71378708 C95.96772588 84.4081182 95.97927915 86.10244494 95.99791908 87.79668045 C96.12484978 100.1020338 95.26776472 110.0980696 86.47021484 119.4230957 C79.53545214 125.73893435 72.24172917 128.47981364 62.86181641 128.4675293 C62.11622467 128.47424652 61.37063293 128.48096375 60.60244751 128.48788452 C58.15074903 128.50679733 55.69932538 128.51078557 53.24755859 128.51293945 C51.53130992 128.51937308 49.81506233 128.52610186 48.09881592 128.53311157 C44.50449077 128.5450683 40.9102616 128.54879416 37.31591797 128.54760742 C32.73191745 128.54740456 28.14853918 128.57467943 23.56468582 128.60915184 C20.01968616 128.63149846 16.47483428 128.63544256 12.92977142 128.63438797 C11.24103404 128.63673331 9.55229192 128.64549606 7.86362457 128.6610527 C-4.41187501 128.76353442 -14.40201234 127.87639033 -23.70166016 119.1027832 C-30.0174988 112.1680205 -32.75837809 104.87429752 -32.74609375 95.49438477 C-32.75281097 94.74879303 -32.7595282 94.00320129 -32.76644897 93.23501587 C-32.78536178 90.78331738 -32.78935003 88.33189374 -32.79150391 85.88012695 C-32.79793754 84.16387828 -32.80466632 82.44763069 -32.81167603 80.73138428 C-32.82363275 77.13705913 -32.82735861 73.54282996 -32.82617188 69.94848633 C-32.82596902 65.36448581 -32.85324389 60.78110754 -32.88771629 56.19725418 C-32.91006291 52.65225452 -32.91400702 49.10740263 -32.91295242 45.56233978 C-32.91529776 43.8736024 -32.92406051 42.18486028 -32.93961716 40.49619293 C-33.05300752 26.91402967 -31.49797611 17.45482729 -21.83447266 7.3137207 C-15.31907099 1.46162758 -8.5119957 0.03273137 0 0 Z " fill="#658658" transform="translate(555.45556640625,72.822998046875)"/>
<path d="M0 0 C0.74515366 -0.0065712 1.49030731 -0.0131424 2.25804138 -0.01991272 C4.72598375 -0.03963216 7.19386513 -0.05130866 9.66186523 -0.0612793 C10.50717237 -0.06535482 11.35247952 -0.06943035 12.22340202 -0.07362938 C16.70231761 -0.09448982 21.1812026 -0.10878855 25.66015625 -0.11816406 C30.26774721 -0.12919548 34.87485083 -0.16355729 39.48227024 -0.20333576 C43.04012393 -0.22959748 46.59786352 -0.2378646 50.15580559 -0.24144554 C51.85292774 -0.24629117 53.55004548 -0.25784688 55.24707222 -0.27648354 C68.16228281 -0.40943904 77.95369951 0.74686245 87.67749023 9.9543457 C93.81688638 16.84451613 95.79961708 23.47707305 95.83496094 32.52490234 C95.84153214 33.25884216 95.84810333 33.99278198 95.85487366 34.7489624 C95.87455588 37.17419551 95.88626106 39.59936668 95.89624023 42.0246582 C95.90031576 42.85676756 95.90439129 43.68887691 95.90859032 44.54620171 C95.92943455 48.95495223 95.94374051 53.36367183 95.953125 57.77246094 C95.96415531 62.30257919 95.99852049 66.83220165 96.0382967 71.36214542 C96.06458332 74.86513615 96.0728277 78.36801119 96.07640648 81.87109184 C96.0812454 83.5394772 96.09278149 85.20785833 96.11144447 86.87614632 C96.24625188 99.73082478 95.21558453 110.54656178 85.94702148 120.23168945 C78.85225531 126.26102999 71.39748105 128.31852437 62.29418945 128.35400391 C61.55864334 128.3605751 60.82309723 128.3671463 60.06526184 128.37391663 C57.63522223 128.39359652 55.20524437 128.40530257 52.77514648 128.4152832 C51.94178898 128.41935873 51.10843147 128.42343426 50.24982071 128.42763329 C45.83573914 128.44847502 41.42168845 128.4627829 37.00756836 128.47216797 C32.46838443 128.48320679 27.92969415 128.51758263 23.39068413 128.55733967 C19.88344468 128.58360157 16.37632096 128.59186843 12.86899185 128.59544945 C11.19698898 128.60029354 9.52499052 128.61184477 7.85308456 128.63048744 C-4.91778768 128.76399807 -14.73281112 127.56652189 -24.36157227 118.46606445 C-30.45147105 111.42724653 -32.48362787 103.8999901 -32.51904297 94.81323242 C-32.52561417 94.07768631 -32.53218536 93.3421402 -32.53895569 92.58430481 C-32.55863558 90.15426519 -32.57034163 87.72428734 -32.58032227 85.29418945 C-32.58439779 84.46083195 -32.58847332 83.62747444 -32.59267235 82.76886368 C-32.61351408 78.35478211 -32.62782196 73.94073142 -32.63720703 69.52661133 C-32.64824585 64.9874274 -32.6826217 60.44873712 -32.72237873 55.9097271 C-32.74864063 52.40248765 -32.75690749 48.89536392 -32.76048851 45.38803482 C-32.7653326 43.71603195 -32.77688383 42.04403349 -32.7955265 40.37212753 C-32.92907208 27.59791221 -31.72655943 17.79485449 -22.63500977 8.1574707 C-16.00563866 2.4315914 -8.61154581 0.03294479 0 0 Z " fill="#1F342E" transform="translate(255.342041015625,372.822998046875)"/>
<path d="M0 0 C0.74515366 -0.0065712 1.49030731 -0.0131424 2.25804138 -0.01991272 C4.72598375 -0.03963216 7.19386513 -0.05130866 9.66186523 -0.0612793 C10.50717237 -0.06535482 11.35247952 -0.06943035 12.22340202 -0.07362938 C16.70231761 -0.09448982 21.1812026 -0.10878855 25.66015625 -0.11816406 C30.26774721 -0.12919548 34.87485083 -0.16355729 39.48227024 -0.20333576 C43.04012393 -0.22959748 46.59786352 -0.2378646 50.15580559 -0.24144554 C51.85292774 -0.24629117 53.55004548 -0.25784688 55.24707222 -0.27648354 C68.16228281 -0.40943904 77.95369951 0.74686245 87.67749023 9.9543457 C93.81688638 16.84451613 95.79961708 23.47707305 95.83496094 32.52490234 C95.84153214 33.25884216 95.84810333 33.99278198 95.85487366 34.7489624 C95.87455588 37.17419551 95.88626106 39.59936668 95.89624023 42.0246582 C95.90031576 42.85676756 95.90439129 43.68887691 95.90859032 44.54620171 C95.92943455 48.95495223 95.94374051 53.36367183 95.953125 57.77246094 C95.96415531 62.30257919 95.99852049 66.83220165 96.0382967 71.36214542 C96.06458332 74.86513615 96.0728277 78.36801119 96.07640648 81.87109184 C96.0812454 83.5394772 96.09278149 85.20785833 96.11144447 86.87614632 C96.24625188 99.73082478 95.21558453 110.54656178 85.94702148 120.23168945 C78.85225531 126.26102999 71.39748105 128.31852437 62.29418945 128.35400391 C61.55864334 128.3605751 60.82309723 128.3671463 60.06526184 128.37391663 C57.63522223 128.39359652 55.20524437 128.40530257 52.77514648 128.4152832 C51.94178898 128.41935873 51.10843147 128.42343426 50.24982071 128.42763329 C45.83573914 128.44847502 41.42168845 128.4627829 37.00756836 128.47216797 C32.46838443 128.48320679 27.92969415 128.51758263 23.39068413 128.55733967 C19.88344468 128.58360157 16.37632096 128.59186843 12.86899185 128.59544945 C11.19698898 128.60029354 9.52499052 128.61184477 7.85308456 128.63048744 C-4.91778768 128.76399807 -14.73281112 127.56652189 -24.36157227 118.46606445 C-30.45147105 111.42724653 -32.48362787 103.8999901 -32.51904297 94.81323242 C-32.52561417 94.07768631 -32.53218536 93.3421402 -32.53895569 92.58430481 C-32.55863558 90.15426519 -32.57034163 87.72428734 -32.58032227 85.29418945 C-32.58439779 84.46083195 -32.58847332 83.62747444 -32.59267235 82.76886368 C-32.61351408 78.35478211 -32.62782196 73.94073142 -32.63720703 69.52661133 C-32.64824585 64.9874274 -32.6826217 60.44873712 -32.72237873 55.9097271 C-32.74864063 52.40248765 -32.75690749 48.89536392 -32.76048851 45.38803482 C-32.7653326 43.71603195 -32.77688383 42.04403349 -32.7955265 40.37212753 C-32.92907208 27.59791221 -31.72655943 17.79485449 -22.63500977 8.1574707 C-16.00563866 2.4315914 -8.61154581 0.03294479 0 0 Z " fill="#1F342E" transform="translate(405.342041015625,222.822998046875)"/>
<path d="M0 0 C0.74515366 -0.0065712 1.49030731 -0.0131424 2.25804138 -0.01991272 C4.72598375 -0.03963216 7.19386513 -0.05130866 9.66186523 -0.0612793 C10.50717237 -0.06535482 11.35247952 -0.06943035 12.22340202 -0.07362938 C16.70231761 -0.09448982 21.1812026 -0.10878855 25.66015625 -0.11816406 C30.26774721 -0.12919548 34.87485083 -0.16355729 39.48227024 -0.20333576 C43.04012393 -0.22959748 46.59786352 -0.2378646 50.15580559 -0.24144554 C51.85292774 -0.24629117 53.55004548 -0.25784688 55.24707222 -0.27648354 C68.16228281 -0.40943904 77.95369951 0.74686245 87.67749023 9.9543457 C93.81688638 16.84451613 95.79961708 23.47707305 95.83496094 32.52490234 C95.84153214 33.25884216 95.84810333 33.99278198 95.85487366 34.7489624 C95.87455588 37.17419551 95.88626106 39.59936668 95.89624023 42.0246582 C95.90031576 42.85676756 95.90439129 43.68887691 95.90859032 44.54620171 C95.92943455 48.95495223 95.94374051 53.36367183 95.953125 57.77246094 C95.96415531 62.30257919 95.99852049 66.83220165 96.0382967 71.36214542 C96.06458332 74.86513615 96.0728277 78.36801119 96.07640648 81.87109184 C96.0812454 83.5394772 96.09278149 85.20785833 96.11144447 86.87614632 C96.24625188 99.73082478 95.21558453 110.54656178 85.94702148 120.23168945 C78.85225531 126.26102999 71.39748105 128.31852437 62.29418945 128.35400391 C61.55864334 128.3605751 60.82309723 128.3671463 60.06526184 128.37391663 C57.63522223 128.39359652 55.20524437 128.40530257 52.77514648 128.4152832 C51.94178898 128.41935873 51.10843147 128.42343426 50.24982071 128.42763329 C45.83573914 128.44847502 41.42168845 128.4627829 37.00756836 128.47216797 C32.46838443 128.48320679 27.92969415 128.51758263 23.39068413 128.55733967 C19.88344468 128.58360157 16.37632096 128.59186843 12.86899185 128.59544945 C11.19698898 128.60029354 9.52499052 128.61184477 7.85308456 128.63048744 C-4.91778768 128.76399807 -14.73281112 127.56652189 -24.36157227 118.46606445 C-30.45147105 111.42724653 -32.48362787 103.8999901 -32.51904297 94.81323242 C-32.52561417 94.07768631 -32.53218536 93.3421402 -32.53895569 92.58430481 C-32.55863558 90.15426519 -32.57034163 87.72428734 -32.58032227 85.29418945 C-32.58439779 84.46083195 -32.58847332 83.62747444 -32.59267235 82.76886368 C-32.61351408 78.35478211 -32.62782196 73.94073142 -32.63720703 69.52661133 C-32.64824585 64.9874274 -32.6826217 60.44873712 -32.72237873 55.9097271 C-32.74864063 52.40248765 -32.75690749 48.89536392 -32.76048851 45.38803482 C-32.7653326 43.71603195 -32.77688383 42.04403349 -32.7955265 40.37212753 C-32.92907208 27.59791221 -31.72655943 17.79485449 -22.63500977 8.1574707 C-16.00563866 2.4315914 -8.61154581 0.03294479 0 0 Z " fill="#1F342E" transform="translate(255.342041015625,222.822998046875)"/>
<path d="M0 0 C0.74515366 -0.0065712 1.49030731 -0.0131424 2.25804138 -0.01991272 C4.72598375 -0.03963216 7.19386513 -0.05130866 9.66186523 -0.0612793 C10.50717237 -0.06535482 11.35247952 -0.06943035 12.22340202 -0.07362938 C16.70231761 -0.09448982 21.1812026 -0.10878855 25.66015625 -0.11816406 C30.26774721 -0.12919548 34.87485083 -0.16355729 39.48227024 -0.20333576 C43.04012393 -0.22959748 46.59786352 -0.2378646 50.15580559 -0.24144554 C51.85292774 -0.24629117 53.55004548 -0.25784688 55.24707222 -0.27648354 C68.16228281 -0.40943904 77.95369951 0.74686245 87.67749023 9.9543457 C93.81688638 16.84451613 95.79961708 23.47707305 95.83496094 32.52490234 C95.84153214 33.25884216 95.84810333 33.99278198 95.85487366 34.7489624 C95.87455588 37.17419551 95.88626106 39.59936668 95.89624023 42.0246582 C95.90031576 42.85676756 95.90439129 43.68887691 95.90859032 44.54620171 C95.92943455 48.95495223 95.94374051 53.36367183 95.953125 57.77246094 C95.96415531 62.30257919 95.99852049 66.83220165 96.0382967 71.36214542 C96.06458332 74.86513615 96.0728277 78.36801119 96.07640648 81.87109184 C96.0812454 83.5394772 96.09278149 85.20785833 96.11144447 86.87614632 C96.24625188 99.73082478 95.21558453 110.54656178 85.94702148 120.23168945 C78.85225531 126.26102999 71.39748105 128.31852437 62.29418945 128.35400391 C61.55864334 128.3605751 60.82309723 128.3671463 60.06526184 128.37391663 C57.63522223 128.39359652 55.20524437 128.40530257 52.77514648 128.4152832 C51.94178898 128.41935873 51.10843147 128.42343426 50.24982071 128.42763329 C45.83573914 128.44847502 41.42168845 128.4627829 37.00756836 128.47216797 C32.46838443 128.48320679 27.92969415 128.51758263 23.39068413 128.55733967 C19.88344468 128.58360157 16.37632096 128.59186843 12.86899185 128.59544945 C11.19698898 128.60029354 9.52499052 128.61184477 7.85308456 128.63048744 C-4.91778768 128.76399807 -14.73281112 127.56652189 -24.36157227 118.46606445 C-30.45147105 111.42724653 -32.48362787 103.8999901 -32.51904297 94.81323242 C-32.52561417 94.07768631 -32.53218536 93.3421402 -32.53895569 92.58430481 C-32.55863558 90.15426519 -32.57034163 87.72428734 -32.58032227 85.29418945 C-32.58439779 84.46083195 -32.58847332 83.62747444 -32.59267235 82.76886368 C-32.61351408 78.35478211 -32.62782196 73.94073142 -32.63720703 69.52661133 C-32.64824585 64.9874274 -32.6826217 60.44873712 -32.72237873 55.9097271 C-32.74864063 52.40248765 -32.75690749 48.89536392 -32.76048851 45.38803482 C-32.7653326 43.71603195 -32.77688383 42.04403349 -32.7955265 40.37212753 C-32.92907208 27.59791221 -31.72655943 17.79485449 -22.63500977 8.1574707 C-16.00563866 2.4315914 -8.61154581 0.03294479 0 0 Z " fill="#1F342E" transform="translate(405.342041015625,72.822998046875)"/>
<path d="M0 0 C0.74515366 -0.0065712 1.49030731 -0.0131424 2.25804138 -0.01991272 C4.72598375 -0.03963216 7.19386513 -0.05130866 9.66186523 -0.0612793 C10.50717237 -0.06535482 11.35247952 -0.06943035 12.22340202 -0.07362938 C16.70231761 -0.09448982 21.1812026 -0.10878855 25.66015625 -0.11816406 C30.26774721 -0.12919548 34.87485083 -0.16355729 39.48227024 -0.20333576 C43.04012393 -0.22959748 46.59786352 -0.2378646 50.15580559 -0.24144554 C51.85292774 -0.24629117 53.55004548 -0.25784688 55.24707222 -0.27648354 C68.16228281 -0.40943904 77.95369951 0.74686245 87.67749023 9.9543457 C93.81688638 16.84451613 95.79961708 23.47707305 95.83496094 32.52490234 C95.84153214 33.25884216 95.84810333 33.99278198 95.85487366 34.7489624 C95.87455588 37.17419551 95.88626106 39.59936668 95.89624023 42.0246582 C95.90031576 42.85676756 95.90439129 43.68887691 95.90859032 44.54620171 C95.92943455 48.95495223 95.94374051 53.36367183 95.953125 57.77246094 C95.96415531 62.30257919 95.99852049 66.83220165 96.0382967 71.36214542 C96.06458332 74.86513615 96.0728277 78.36801119 96.07640648 81.87109184 C96.0812454 83.5394772 96.09278149 85.20785833 96.11144447 86.87614632 C96.24625188 99.73082478 95.21558453 110.54656178 85.94702148 120.23168945 C78.85225531 126.26102999 71.39748105 128.31852437 62.29418945 128.35400391 C61.55864334 128.3605751 60.82309723 128.3671463 60.06526184 128.37391663 C57.63522223 128.39359652 55.20524437 128.40530257 52.77514648 128.4152832 C51.94178898 128.41935873 51.10843147 128.42343426 50.24982071 128.42763329 C45.83573914 128.44847502 41.42168845 128.4627829 37.00756836 128.47216797 C32.46838443 128.48320679 27.92969415 128.51758263 23.39068413 128.55733967 C19.88344468 128.58360157 16.37632096 128.59186843 12.86899185 128.59544945 C11.19698898 128.60029354 9.52499052 128.61184477 7.85308456 128.63048744 C-4.91778768 128.76399807 -14.73281112 127.56652189 -24.36157227 118.46606445 C-30.45147105 111.42724653 -32.48362787 103.8999901 -32.51904297 94.81323242 C-32.52561417 94.07768631 -32.53218536 93.3421402 -32.53895569 92.58430481 C-32.55863558 90.15426519 -32.57034163 87.72428734 -32.58032227 85.29418945 C-32.58439779 84.46083195 -32.58847332 83.62747444 -32.59267235 82.76886368 C-32.61351408 78.35478211 -32.62782196 73.94073142 -32.63720703 69.52661133 C-32.64824585 64.9874274 -32.6826217 60.44873712 -32.72237873 55.9097271 C-32.74864063 52.40248765 -32.75690749 48.89536392 -32.76048851 45.38803482 C-32.7653326 43.71603195 -32.77688383 42.04403349 -32.7955265 40.37212753 C-32.92907208 27.59791221 -31.72655943 17.79485449 -22.63500977 8.1574707 C-16.00563866 2.4315914 -8.61154581 0.03294479 0 0 Z " fill="#1F342E" transform="translate(255.342041015625,72.822998046875)"/>
<path d="M0 0 C13.2 0 26.4 0 40 0 C45.74468085 20.68085106 45.74468085 20.68085106 48.125 29.4375 C48.36347656 30.31341797 48.60195313 31.18933594 48.84765625 32.09179688 C49.32210334 33.83442822 49.79639232 35.57710263 50.27050781 37.31982422 C51.5118063 41.88039143 52.75596477 46.44017869 54 51 C57.39412029 40.54928312 60.07967062 29.9801153 62.6875 19.3125 C63.29061381 16.85213273 63.89483296 14.39205613 64.50190735 11.93266296 C64.87606233 10.41634123 65.24789543 8.89944419 65.61711121 7.38191223 C66.88780955 2.2243809 66.88780955 2.2243809 68 0 C81.2 0 94.4 0 108 0 C108 33 108 66 108 100 C98.76 100 89.52 100 80 100 C79.67 77.89 79.34 55.78 79 33 C77.618125 38.56875 76.23625 44.1375 74.8125 49.875 C72.18098074 60.44404642 69.53763309 70.99834849 66.54345703 81.47167969 C64.79770678 87.60438664 63.37567774 93.77324814 62 100 C55.4 100 48.8 100 42 100 C40.72038363 96.1611509 39.52910017 92.42809955 38.484375 88.53515625 C38.20561523 87.49883057 37.92685547 86.46250488 37.63964844 85.39477539 C37.34606445 84.29512451 37.05248047 83.19547363 36.75 82.0625 C36.44352539 80.91966553 36.13705078 79.77683105 35.82128906 78.59936523 C33.52529314 70.0178139 31.26741706 61.42653206 29.04199219 52.82641602 C27.41219074 46.53512594 25.71038636 40.27141667 24 34 C23.67 55.78 23.34 77.56 23 100 C15.41 100 7.82 100 0 100 C0 67 0 34 0 0 Z " fill="#010101" transform="translate(513,701)"/>
<path d="M0 0 C9.43657681 8.6831575 14.32635986 20.55781163 15.00146484 33.25317383 C15.08164827 36.04452729 15.10990575 38.83256381 15.125 41.625 C15.145625 42.5634375 15.16625 43.501875 15.1875 44.46875 C15.26074376 57.72587032 10.17113907 70.67299659 1 80.375 C-8.79120991 89.2863115 -21.67594991 93.67297283 -34.859375 93.1953125 C-48.01168917 91.90525298 -59.02936746 87.65744561 -68.125 77.875 C-79.91598686 63.07610833 -80.57547852 46.0456554 -79.125 27.875 C-77.51761632 15.86845099 -70.74790612 5.22669744 -61.50390625 -2.40625 C-43.02364749 -15.75816109 -17.5351484 -14.04155562 0 0 Z " fill="#010101" transform="translate(335.125,835.125)"/>
<path d="M0 0 C8.5092844 7.84449655 11.67714089 15.94330991 14 27 C9.56279903 27.50267778 5.12519293 28.00168547 0.6875 28.5 C-0.57513672 28.64308594 -1.83777344 28.78617188 -3.13867188 28.93359375 C-4.95141602 29.13662109 -4.95141602 29.13662109 -6.80078125 29.34375 C-7.91622314 29.46943359 -9.03166504 29.59511719 -10.1809082 29.72460938 C-13 30 -13 30 -16 30 C-16.14695312 29.33613281 -16.29390625 28.67226563 -16.4453125 27.98828125 C-17.96496228 21.86494622 -17.96496228 21.86494622 -21.625 16.875 C-25.95636072 14.46868849 -29.15513795 14.07588742 -34 15 C-38.83590543 17.36422043 -40.29077887 21.16200973 -42.14672852 25.95947266 C-43.76818587 31.7373353 -43.61457564 37.53887112 -43.5625 43.5 C-43.58634766 44.75425781 -43.61019531 46.00851562 -43.63476562 47.30078125 C-43.62223069 55.28135819 -42.56870178 61.34223153 -38 68 C-34.97750886 70.85457497 -32.52405529 71.18845439 -28.5 71.375 C-23.56553195 71.1946706 -20.69658633 69.8222594 -17.3125 66.1875 C-15.59212555 63.49947816 -15.59212555 63.49947816 -14 58 C-19.61 58 -25.22 58 -31 58 C-31 51.07 -31 44.14 -31 37 C-16.15 37 -1.3 37 14 37 C14 55.48 14 73.96 14 93 C9.05 93 4.1 93 -1 93 C-1.99 90.03 -2.98 87.06 -4 84 C-5.7325 85.36125 -5.7325 85.36125 -7.5 86.75 C-17.81990288 94.46257759 -27.18616233 95.76542836 -40 95 C-50.26739535 93.29838111 -60.80679764 87.45798516 -67 79 C-72.42808016 70.22490091 -76.3855677 61.40527744 -77 51 C-77.07992188 49.84113281 -77.15984375 48.68226563 -77.2421875 47.48828125 C-77.82581597 31.06085631 -73.37277278 16.46327049 -62.875 3.6875 C-47.44522248 -12.59661084 -17.43421958 -13.89289373 0 0 Z " fill="#010101" transform="translate(387,708)"/>
<path d="M0 0 C24.75 0 49.5 0 75 0 C75 7.59 75 15.18 75 23 C60.15 23 45.3 23 30 23 C30 27.62 30 32.24 30 37 C41.88 37 53.76 37 66 37 C66 44.59 66 52.18 66 60 C54.12 60 42.24 60 30 60 C30 65.61 30 71.22 30 77 C44.85 77 59.7 77 75 77 C75 84.59 75 92.18 75 100 C50.25 100 25.5 100 0 100 C0 67 0 34 0 0 Z " fill="#000000" transform="translate(694,826)"/>
<path d="M0 0 C24.75 0 49.5 0 75 0 C75 7.59 75 15.18 75 23 C60.15 23 45.3 23 30 23 C30 27.62 30 32.24 30 37 C41.88 37 53.76 37 66 37 C66 44.59 66 52.18 66 60 C54.12 60 42.24 60 30 60 C30 65.61 30 71.22 30 77 C44.85 77 59.7 77 75 77 C75 84.59 75 92.18 75 100 C50.25 100 25.5 100 0 100 C0 67 0 34 0 0 Z " fill="#000000" transform="translate(639,701)"/>
<path d="M0 0 C10.89 0 21.78 0 33 0 C41.33639706 24.87025123 41.33639706 24.87025123 44.078125 33.94921875 C45.17456186 37.57768139 46.30434008 41.19538777 47.4375 44.8125 C47.86328224 46.17317677 48.28906349 47.53385386 48.71484375 48.89453125 C48.92737793 49.57338379 49.13991211 50.25223633 49.35888672 50.95166016 C49.99108475 52.97151602 50.62264098 54.99157119 51.25390625 57.01171875 C51.45967285 57.67018799 51.66543945 58.32865723 51.87744141 59.00708008 C52.29266577 60.33628653 52.70770467 61.66555093 53.12255859 62.99487305 C54.17155135 66.35501781 55.22449528 69.71383114 56.28515625 73.0703125 C64 97.52950712 64 97.52950712 64 100 C53.77 100 43.54 100 33 100 C32.175 97.256875 31.35 94.51375 30.5 91.6875 C30.23896484 90.82729248 29.97792969 89.96708496 29.70898438 89.08081055 C29.50595703 88.39801025 29.30292969 87.71520996 29.09375 87.01171875 C28.88427734 86.31522217 28.67480469 85.61872559 28.45898438 84.90112305 C28 83 28 83 28 80 C18.76 80 9.52 80 0 80 C-0.99 83.96 -1.98 87.92 -3 92 C-3.66 94.64 -4.32 97.28 -5 100 C-13.25 100 -21.5 100 -30 100 C-28.609568 93.04784 -27.07156145 86.79580429 -24.75 80.1875 C-22.28858365 73.00836897 -20.02919558 65.81292981 -18 58.5 C-15.78621321 50.54207364 -13.2811483 42.7253251 -10.61645508 34.90795898 C-7.64758114 26.12019119 -5.12340807 17.21819982 -2.66674805 8.27563477 C-1.85184093 5.49432785 -0.91650105 2.74950315 0 0 Z " fill="#010101" transform="translate(439,701)"/>
<path d="M0 0 C23.76 0 47.52 0 72 0 C72 7.59 72 15.18 72 23 C57.81 23 43.62 23 29 23 C29 28.61 29 34.22 29 40 C39.89 40 50.78 40 62 40 C62 47.59 62 55.18 62 63 C51.11 63 40.22 63 29 63 C29 75.21 29 87.42 29 100 C19.43 100 9.86 100 0 100 C0 67 0 34 0 0 Z " fill="#000000" transform="translate(612,826)"/>
<path d="M0 0 C23.76 0 47.52 0 72 0 C72 7.59 72 15.18 72 23 C57.81 23 43.62 23 29 23 C29 28.61 29 34.22 29 40 C39.89 40 50.78 40 62 40 C62 47.59 62 55.18 62 63 C51.11 63 40.22 63 29 63 C29 75.21 29 87.42 29 100 C19.43 100 9.86 100 0 100 C0 67 0 34 0 0 Z " fill="#000000" transform="translate(363,826)"/>
<path d="M0 0 C9.9 0 19.8 0 30 0 C30 24.75 30 49.5 30 75 C43.2 75 56.4 75 70 75 C70 83.25 70 91.5 70 100 C46.9 100 23.8 100 0 100 C0 67 0 34 0 0 Z " fill="#000000" transform="translate(483,826)"/>
<path d="M0 0 C9.9 0 19.8 0 30 0 C30 33 30 66 30 100 C20.1 100 10.2 100 0 100 C0 67 0 34 0 0 Z " fill="#000000" transform="translate(564,826)"/>
<path d="M0 0 C5.14832654 2.27714443 7.06584594 5.2037057 9.1796875 10.17553711 C10.83098475 15.86120911 10.4880778 21.69138172 10.375 27.5625 C10.37371094 28.83802734 10.37242187 30.11355469 10.37109375 31.42773438 C10.28495692 40.64916093 10.03174697 48.54901845 4 56 C-0.19806509 58.58070528 -4.20174253 58.66212513 -9 58 C-14.28512002 55.29871644 -16.14618794 50.38877722 -18 45 C-21.2010733 33.27686402 -20.61865349 16.83952621 -15 6 C-10.88257152 0.3502627 -6.80685643 -1.0804534 0 0 Z " fill="#E5E5E5" transform="translate(307,847)"/>
<path d="M0 0 C2 1 2 1 2.77783203 3.06958008 C3.01872559 3.96056396 3.25961914 4.85154785 3.5078125 5.76953125 C3.77207031 6.74083984 4.03632813 7.71214844 4.30859375 8.71289062 C4.57800781 9.73576172 4.84742188 10.75863281 5.125 11.8125 C5.40214844 12.82376953 5.67929687 13.83503906 5.96484375 14.87695312 C7.09786139 19.09925777 8 22.59888158 8 27 C3.05 27 -1.9 27 -7 27 C-5.38949895 17.77622123 -2.71861481 8.94445024 0 0 Z " fill="#DEDEDE" transform="translate(452,731)"/>
<path d="M0 0 C0.33 0 0.66 0 1 0 C1 23.43 1 46.86 1 71 C0.67 71 0.34 71 0 71 C-0.33 51.53 -0.66 32.06 -1 12 C-1.99 12.495 -1.99 12.495 -3 13 C-2.01 8.71 -1.02 4.42 0 0 Z " fill="#CECECE" transform="translate(592,730)"/>
</svg>
