<?xml version="1.0" encoding="UTF-8"?>
<svg version="1.1" xmlns="http://www.w3.org/2000/svg" width="1024" height="1024">
<path d="M0 0 C1.14764832 -0.01007584 1.14764832 -0.01007584 2.31848145 -0.02035522 C4.83510935 -0.03927297 7.35146957 -0.04325652 9.86816406 -0.04541016 C11.6292532 -0.0518434 13.39034128 -0.05857215 15.15142822 -0.06558228 C18.83990962 -0.07754021 22.52829747 -0.08126473 26.21679688 -0.08007812 C30.92185908 -0.07987525 35.62631514 -0.10715128 40.33123398 -0.14162254 C43.96887923 -0.16396434 47.60638041 -0.16791341 51.24408722 -0.16685867 C52.97748143 -0.16920469 54.71088021 -0.17797133 56.44420624 -0.19352341 C68.07886889 -0.28812522 78.55857118 0.11105955 87.53222656 8.44677734 C93.90695286 15.78548664 96.27503124 22.38142552 96.31079102 31.9296875 C96.31736221 32.69449432 96.32393341 33.45930115 96.33070374 34.24728394 C96.35038851 36.77472034 96.36209063 39.30209736 96.37207031 41.82958984 C96.37614584 42.69604504 96.38022137 43.56250023 96.38442039 44.45521164 C96.40526394 49.0443574 96.41957119 53.63347343 96.42895508 58.22265625 C96.43999582 62.943434 96.47437349 67.66373734 96.51412678 72.38434792 C96.54037986 76.03055649 96.54865476 79.6766537 96.55223656 83.32294846 C96.5570827 85.0619361 96.5686399 86.80091944 96.58727455 88.539814 C96.70570545 100.32696313 96.29702244 110.70097949 87.83691406 119.75927734 C80.89658406 125.99920707 73.57406258 128.59292218 64.26757812 128.58105469 C63.50247925 128.58777191 62.73738037 128.59448914 61.94909668 128.60140991 C59.43246878 128.62032766 56.91610855 128.62431121 54.39941406 128.62646484 C52.63832492 128.63289809 50.87723684 128.63962684 49.1161499 128.64663696 C45.42766851 128.6585949 41.73928065 128.66231942 38.05078125 128.66113281 C33.34571905 128.66092994 28.64126298 128.68820597 23.93634415 128.72267723 C20.2986989 128.74501902 16.66119771 128.7489681 13.02349091 128.74791336 C11.2900967 128.75025937 9.55669791 128.75902602 7.82337189 128.77457809 C-3.81129077 128.8691799 -14.29099306 128.46999514 -23.26464844 120.13427734 C-29.63937473 112.79556805 -32.00745311 106.19962917 -32.04321289 96.65136719 C-32.04978409 95.88656036 -32.05635529 95.12175354 -32.06312561 94.33377075 C-32.08281038 91.80633434 -32.0945125 89.27895732 -32.10449219 86.75146484 C-32.10856771 85.88500965 -32.11264324 85.01855446 -32.11684227 84.12584305 C-32.13768582 79.53669729 -32.15199307 74.94758125 -32.16137695 70.35839844 C-32.17241769 65.63762069 -32.20679536 60.91731735 -32.24654865 56.19670677 C-32.27280174 52.55049819 -32.28107663 48.90440099 -32.28465843 45.25810623 C-32.28950457 43.51911858 -32.30106178 41.78013525 -32.31969643 40.04124069 C-32.43812733 28.25409155 -32.02944431 17.8800752 -23.56933594 8.82177734 C-16.62900593 2.58184761 -9.30648445 -0.01186749 0 0 Z " fill="#E9B03B" transform="translate(704.8662109375,522.70947265625)"/>
<path d="M0 0 C1.14764832 -0.01007584 1.14764832 -0.01007584 2.31848145 -0.02035522 C4.83510935 -0.03927297 7.35146957 -0.04325652 9.86816406 -0.04541016 C11.6292532 -0.0518434 13.39034128 -0.05857215 15.15142822 -0.06558228 C18.83990962 -0.07754021 22.52829747 -0.08126473 26.21679688 -0.08007812 C30.92185908 -0.07987525 35.62631514 -0.10715128 40.33123398 -0.14162254 C43.96887923 -0.16396434 47.60638041 -0.16791341 51.24408722 -0.16685867 C52.97748143 -0.16920469 54.71088021 -0.17797133 56.44420624 -0.19352341 C68.07886889 -0.28812522 78.55857118 0.11105955 87.53222656 8.44677734 C93.90695286 15.78548664 96.27503124 22.38142552 96.31079102 31.9296875 C96.31736221 32.69449432 96.32393341 33.45930115 96.33070374 34.24728394 C96.35038851 36.77472034 96.36209063 39.30209736 96.37207031 41.82958984 C96.37614584 42.69604504 96.38022137 43.56250023 96.38442039 44.45521164 C96.40526394 49.0443574 96.41957119 53.63347343 96.42895508 58.22265625 C96.43999582 62.943434 96.47437349 67.66373734 96.51412678 72.38434792 C96.54037986 76.03055649 96.54865476 79.6766537 96.55223656 83.32294846 C96.5570827 85.0619361 96.5686399 86.80091944 96.58727455 88.539814 C96.70570545 100.32696313 96.29702244 110.70097949 87.83691406 119.75927734 C80.89658406 125.99920707 73.57406258 128.59292218 64.26757812 128.58105469 C63.50247925 128.58777191 62.73738037 128.59448914 61.94909668 128.60140991 C59.43246878 128.62032766 56.91610855 128.62431121 54.39941406 128.62646484 C52.63832492 128.63289809 50.87723684 128.63962684 49.1161499 128.64663696 C45.42766851 128.6585949 41.73928065 128.66231942 38.05078125 128.66113281 C33.34571905 128.66092994 28.64126298 128.68820597 23.93634415 128.72267723 C20.2986989 128.74501902 16.66119771 128.7489681 13.02349091 128.74791336 C11.2900967 128.75025937 9.55669791 128.75902602 7.82337189 128.77457809 C-3.81129077 128.8691799 -14.29099306 128.46999514 -23.26464844 120.13427734 C-29.63937473 112.79556805 -32.00745311 106.19962917 -32.04321289 96.65136719 C-32.04978409 95.88656036 -32.05635529 95.12175354 -32.06312561 94.33377075 C-32.08281038 91.80633434 -32.0945125 89.27895732 -32.10449219 86.75146484 C-32.10856771 85.88500965 -32.11264324 85.01855446 -32.11684227 84.12584305 C-32.13768582 79.53669729 -32.15199307 74.94758125 -32.16137695 70.35839844 C-32.17241769 65.63762069 -32.20679536 60.91731735 -32.24654865 56.19670677 C-32.27280174 52.55049819 -32.28107663 48.90440099 -32.28465843 45.25810623 C-32.28950457 43.51911858 -32.30106178 41.78013525 -32.31969643 40.04124069 C-32.43812733 28.25409155 -32.02944431 17.8800752 -23.56933594 8.82177734 C-16.62900593 2.58184761 -9.30648445 -0.01186749 0 0 Z " fill="#91AF72" transform="translate(554.8662109375,522.70947265625)"/>
<path d="M0 0 C1.14764832 -0.01007584 1.14764832 -0.01007584 2.31848145 -0.02035522 C4.83510935 -0.03927297 7.35146957 -0.04325652 9.86816406 -0.04541016 C11.6292532 -0.0518434 13.39034128 -0.05857215 15.15142822 -0.06558228 C18.83990962 -0.07754021 22.52829747 -0.08126473 26.21679688 -0.08007812 C30.92185908 -0.07987525 35.62631514 -0.10715128 40.33123398 -0.14162254 C43.96887923 -0.16396434 47.60638041 -0.16791341 51.24408722 -0.16685867 C52.97748143 -0.16920469 54.71088021 -0.17797133 56.44420624 -0.19352341 C68.07886889 -0.28812522 78.55857118 0.11105955 87.53222656 8.44677734 C93.90695286 15.78548664 96.27503124 22.38142552 96.31079102 31.9296875 C96.31736221 32.69449432 96.32393341 33.45930115 96.33070374 34.24728394 C96.35038851 36.77472034 96.36209063 39.30209736 96.37207031 41.82958984 C96.37614584 42.69604504 96.38022137 43.56250023 96.38442039 44.45521164 C96.40526394 49.0443574 96.41957119 53.63347343 96.42895508 58.22265625 C96.43999582 62.943434 96.47437349 67.66373734 96.51412678 72.38434792 C96.54037986 76.03055649 96.54865476 79.6766537 96.55223656 83.32294846 C96.5570827 85.0619361 96.5686399 86.80091944 96.58727455 88.539814 C96.70570545 100.32696313 96.29702244 110.70097949 87.83691406 119.75927734 C80.89658406 125.99920707 73.57406258 128.59292218 64.26757812 128.58105469 C63.50247925 128.58777191 62.73738037 128.59448914 61.94909668 128.60140991 C59.43246878 128.62032766 56.91610855 128.62431121 54.39941406 128.62646484 C52.63832492 128.63289809 50.87723684 128.63962684 49.1161499 128.64663696 C45.42766851 128.6585949 41.73928065 128.66231942 38.05078125 128.66113281 C33.34571905 128.66092994 28.64126298 128.68820597 23.93634415 128.72267723 C20.2986989 128.74501902 16.66119771 128.7489681 13.02349091 128.74791336 C11.2900967 128.75025937 9.55669791 128.75902602 7.82337189 128.77457809 C-3.81129077 128.8691799 -14.29099306 128.46999514 -23.26464844 120.13427734 C-29.63937473 112.79556805 -32.00745311 106.19962917 -32.04321289 96.65136719 C-32.04978409 95.88656036 -32.05635529 95.12175354 -32.06312561 94.33377075 C-32.08281038 91.80633434 -32.0945125 89.27895732 -32.10449219 86.75146484 C-32.10856771 85.88500965 -32.11264324 85.01855446 -32.11684227 84.12584305 C-32.13768582 79.53669729 -32.15199307 74.94758125 -32.16137695 70.35839844 C-32.17241769 65.63762069 -32.20679536 60.91731735 -32.24654865 56.19670677 C-32.27280174 52.55049819 -32.28107663 48.90440099 -32.28465843 45.25810623 C-32.28950457 43.51911858 -32.30106178 41.78013525 -32.31969643 40.04124069 C-32.43812733 28.25409155 -32.02944431 17.8800752 -23.56933594 8.82177734 C-16.62900593 2.58184761 -9.30648445 -0.01186749 0 0 Z " fill="#91AF72" transform="translate(404.8662109375,522.70947265625)"/>
<path d="M0 0 C1.14764832 -0.01007584 1.14764832 -0.01007584 2.31848145 -0.02035522 C4.83510935 -0.03927297 7.35146957 -0.04325652 9.86816406 -0.04541016 C11.6292532 -0.0518434 13.39034128 -0.05857215 15.15142822 -0.06558228 C18.83990962 -0.07754021 22.52829747 -0.08126473 26.21679688 -0.08007812 C30.92185908 -0.07987525 35.62631514 -0.10715128 40.33123398 -0.14162254 C43.96887923 -0.16396434 47.60638041 -0.16791341 51.24408722 -0.16685867 C52.97748143 -0.16920469 54.71088021 -0.17797133 56.44420624 -0.19352341 C68.07886889 -0.28812522 78.55857118 0.11105955 87.53222656 8.44677734 C93.90695286 15.78548664 96.27503124 22.38142552 96.31079102 31.9296875 C96.31736221 32.69449432 96.32393341 33.45930115 96.33070374 34.24728394 C96.35038851 36.77472034 96.36209063 39.30209736 96.37207031 41.82958984 C96.37614584 42.69604504 96.38022137 43.56250023 96.38442039 44.45521164 C96.40526394 49.0443574 96.41957119 53.63347343 96.42895508 58.22265625 C96.43999582 62.943434 96.47437349 67.66373734 96.51412678 72.38434792 C96.54037986 76.03055649 96.54865476 79.6766537 96.55223656 83.32294846 C96.5570827 85.0619361 96.5686399 86.80091944 96.58727455 88.539814 C96.70570545 100.32696313 96.29702244 110.70097949 87.83691406 119.75927734 C80.89658406 125.99920707 73.57406258 128.59292218 64.26757812 128.58105469 C63.50247925 128.58777191 62.73738037 128.59448914 61.94909668 128.60140991 C59.43246878 128.62032766 56.91610855 128.62431121 54.39941406 128.62646484 C52.63832492 128.63289809 50.87723684 128.63962684 49.1161499 128.64663696 C45.42766851 128.6585949 41.73928065 128.66231942 38.05078125 128.66113281 C33.34571905 128.66092994 28.64126298 128.68820597 23.93634415 128.72267723 C20.2986989 128.74501902 16.66119771 128.7489681 13.02349091 128.74791336 C11.2900967 128.75025937 9.55669791 128.75902602 7.82337189 128.77457809 C-3.81129077 128.8691799 -14.29099306 128.46999514 -23.26464844 120.13427734 C-29.63937473 112.79556805 -32.00745311 106.19962917 -32.04321289 96.65136719 C-32.04978409 95.88656036 -32.05635529 95.12175354 -32.06312561 94.33377075 C-32.08281038 91.80633434 -32.0945125 89.27895732 -32.10449219 86.75146484 C-32.10856771 85.88500965 -32.11264324 85.01855446 -32.11684227 84.12584305 C-32.13768582 79.53669729 -32.15199307 74.94758125 -32.16137695 70.35839844 C-32.17241769 65.63762069 -32.20679536 60.91731735 -32.24654865 56.19670677 C-32.27280174 52.55049819 -32.28107663 48.90440099 -32.28465843 45.25810623 C-32.28950457 43.51911858 -32.30106178 41.78013525 -32.31969643 40.04124069 C-32.43812733 28.25409155 -32.02944431 17.8800752 -23.56933594 8.82177734 C-16.62900593 2.58184761 -9.30648445 -0.01186749 0 0 Z " fill="#E9B03B" transform="translate(704.8662109375,372.70947265625)"/>
<path d="M0 0 C1.14764832 -0.01007584 1.14764832 -0.01007584 2.31848145 -0.02035522 C4.83510935 -0.03927297 7.35146957 -0.04325652 9.86816406 -0.04541016 C11.6292532 -0.0518434 13.39034128 -0.05857215 15.15142822 -0.06558228 C18.83990962 -0.07754021 22.52829747 -0.08126473 26.21679688 -0.08007812 C30.92185908 -0.07987525 35.62631514 -0.10715128 40.33123398 -0.14162254 C43.96887923 -0.16396434 47.60638041 -0.16791341 51.24408722 -0.16685867 C52.97748143 -0.16920469 54.71088021 -0.17797133 56.44420624 -0.19352341 C68.07886889 -0.28812522 78.55857118 0.11105955 87.53222656 8.44677734 C93.90695286 15.78548664 96.27503124 22.38142552 96.31079102 31.9296875 C96.31736221 32.69449432 96.32393341 33.45930115 96.33070374 34.24728394 C96.35038851 36.77472034 96.36209063 39.30209736 96.37207031 41.82958984 C96.37614584 42.69604504 96.38022137 43.56250023 96.38442039 44.45521164 C96.40526394 49.0443574 96.41957119 53.63347343 96.42895508 58.22265625 C96.43999582 62.943434 96.47437349 67.66373734 96.51412678 72.38434792 C96.54037986 76.03055649 96.54865476 79.6766537 96.55223656 83.32294846 C96.5570827 85.0619361 96.5686399 86.80091944 96.58727455 88.539814 C96.70570545 100.32696313 96.29702244 110.70097949 87.83691406 119.75927734 C80.89658406 125.99920707 73.57406258 128.59292218 64.26757812 128.58105469 C63.50247925 128.58777191 62.73738037 128.59448914 61.94909668 128.60140991 C59.43246878 128.62032766 56.91610855 128.62431121 54.39941406 128.62646484 C52.63832492 128.63289809 50.87723684 128.63962684 49.1161499 128.64663696 C45.42766851 128.6585949 41.73928065 128.66231942 38.05078125 128.66113281 C33.34571905 128.66092994 28.64126298 128.68820597 23.93634415 128.72267723 C20.2986989 128.74501902 16.66119771 128.7489681 13.02349091 128.74791336 C11.2900967 128.75025937 9.55669791 128.75902602 7.82337189 128.77457809 C-3.81129077 128.8691799 -14.29099306 128.46999514 -23.26464844 120.13427734 C-29.63937473 112.79556805 -32.00745311 106.19962917 -32.04321289 96.65136719 C-32.04978409 95.88656036 -32.05635529 95.12175354 -32.06312561 94.33377075 C-32.08281038 91.80633434 -32.0945125 89.27895732 -32.10449219 86.75146484 C-32.10856771 85.88500965 -32.11264324 85.01855446 -32.11684227 84.12584305 C-32.13768582 79.53669729 -32.15199307 74.94758125 -32.16137695 70.35839844 C-32.17241769 65.63762069 -32.20679536 60.91731735 -32.24654865 56.19670677 C-32.27280174 52.55049819 -32.28107663 48.90440099 -32.28465843 45.25810623 C-32.28950457 43.51911858 -32.30106178 41.78013525 -32.31969643 40.04124069 C-32.43812733 28.25409155 -32.02944431 17.8800752 -23.56933594 8.82177734 C-16.62900593 2.58184761 -9.30648445 -0.01186749 0 0 Z " fill="#91AF72" transform="translate(554.8662109375,372.70947265625)"/>
<path d="M0 0 C1.14764832 -0.01007584 1.14764832 -0.01007584 2.31848145 -0.02035522 C4.83510935 -0.03927297 7.35146957 -0.04325652 9.86816406 -0.04541016 C11.6292532 -0.0518434 13.39034128 -0.05857215 15.15142822 -0.06558228 C18.83990962 -0.07754021 22.52829747 -0.08126473 26.21679688 -0.08007812 C30.92185908 -0.07987525 35.62631514 -0.10715128 40.33123398 -0.14162254 C43.96887923 -0.16396434 47.60638041 -0.16791341 51.24408722 -0.16685867 C52.97748143 -0.16920469 54.71088021 -0.17797133 56.44420624 -0.19352341 C68.07886889 -0.28812522 78.55857118 0.11105955 87.53222656 8.44677734 C93.90695286 15.78548664 96.27503124 22.38142552 96.31079102 31.9296875 C96.31736221 32.69449432 96.32393341 33.45930115 96.33070374 34.24728394 C96.35038851 36.77472034 96.36209063 39.30209736 96.37207031 41.82958984 C96.37614584 42.69604504 96.38022137 43.56250023 96.38442039 44.45521164 C96.40526394 49.0443574 96.41957119 53.63347343 96.42895508 58.22265625 C96.43999582 62.943434 96.47437349 67.66373734 96.51412678 72.38434792 C96.54037986 76.03055649 96.54865476 79.6766537 96.55223656 83.32294846 C96.5570827 85.0619361 96.5686399 86.80091944 96.58727455 88.539814 C96.70570545 100.32696313 96.29702244 110.70097949 87.83691406 119.75927734 C80.89658406 125.99920707 73.57406258 128.59292218 64.26757812 128.58105469 C63.50247925 128.58777191 62.73738037 128.59448914 61.94909668 128.60140991 C59.43246878 128.62032766 56.91610855 128.62431121 54.39941406 128.62646484 C52.63832492 128.63289809 50.87723684 128.63962684 49.1161499 128.64663696 C45.42766851 128.6585949 41.73928065 128.66231942 38.05078125 128.66113281 C33.34571905 128.66092994 28.64126298 128.68820597 23.93634415 128.72267723 C20.2986989 128.74501902 16.66119771 128.7489681 13.02349091 128.74791336 C11.2900967 128.75025937 9.55669791 128.75902602 7.82337189 128.77457809 C-3.81129077 128.8691799 -14.29099306 128.46999514 -23.26464844 120.13427734 C-29.63937473 112.79556805 -32.00745311 106.19962917 -32.04321289 96.65136719 C-32.04978409 95.88656036 -32.05635529 95.12175354 -32.06312561 94.33377075 C-32.08281038 91.80633434 -32.0945125 89.27895732 -32.10449219 86.75146484 C-32.10856771 85.88500965 -32.11264324 85.01855446 -32.11684227 84.12584305 C-32.13768582 79.53669729 -32.15199307 74.94758125 -32.16137695 70.35839844 C-32.17241769 65.63762069 -32.20679536 60.91731735 -32.24654865 56.19670677 C-32.27280174 52.55049819 -32.28107663 48.90440099 -32.28465843 45.25810623 C-32.28950457 43.51911858 -32.30106178 41.78013525 -32.31969643 40.04124069 C-32.43812733 28.25409155 -32.02944431 17.8800752 -23.56933594 8.82177734 C-16.62900593 2.58184761 -9.30648445 -0.01186749 0 0 Z " fill="#1E332D" transform="translate(254.8662109375,372.70947265625)"/>
<path d="M0 0 C1.14764832 -0.01007584 1.14764832 -0.01007584 2.31848145 -0.02035522 C4.83510935 -0.03927297 7.35146957 -0.04325652 9.86816406 -0.04541016 C11.6292532 -0.0518434 13.39034128 -0.05857215 15.15142822 -0.06558228 C18.83990962 -0.07754021 22.52829747 -0.08126473 26.21679688 -0.08007812 C30.92185908 -0.07987525 35.62631514 -0.10715128 40.33123398 -0.14162254 C43.96887923 -0.16396434 47.60638041 -0.16791341 51.24408722 -0.16685867 C52.97748143 -0.16920469 54.71088021 -0.17797133 56.44420624 -0.19352341 C68.07886889 -0.28812522 78.55857118 0.11105955 87.53222656 8.44677734 C93.90695286 15.78548664 96.27503124 22.38142552 96.31079102 31.9296875 C96.31736221 32.69449432 96.32393341 33.45930115 96.33070374 34.24728394 C96.35038851 36.77472034 96.36209063 39.30209736 96.37207031 41.82958984 C96.37614584 42.69604504 96.38022137 43.56250023 96.38442039 44.45521164 C96.40526394 49.0443574 96.41957119 53.63347343 96.42895508 58.22265625 C96.43999582 62.943434 96.47437349 67.66373734 96.51412678 72.38434792 C96.54037986 76.03055649 96.54865476 79.6766537 96.55223656 83.32294846 C96.5570827 85.0619361 96.5686399 86.80091944 96.58727455 88.539814 C96.70570545 100.32696313 96.29702244 110.70097949 87.83691406 119.75927734 C80.89658406 125.99920707 73.57406258 128.59292218 64.26757812 128.58105469 C63.50247925 128.58777191 62.73738037 128.59448914 61.94909668 128.60140991 C59.43246878 128.62032766 56.91610855 128.62431121 54.39941406 128.62646484 C52.63832492 128.63289809 50.87723684 128.63962684 49.1161499 128.64663696 C45.42766851 128.6585949 41.73928065 128.66231942 38.05078125 128.66113281 C33.34571905 128.66092994 28.64126298 128.68820597 23.93634415 128.72267723 C20.2986989 128.74501902 16.66119771 128.7489681 13.02349091 128.74791336 C11.2900967 128.75025937 9.55669791 128.75902602 7.82337189 128.77457809 C-3.81129077 128.8691799 -14.29099306 128.46999514 -23.26464844 120.13427734 C-29.63937473 112.79556805 -32.00745311 106.19962917 -32.04321289 96.65136719 C-32.04978409 95.88656036 -32.05635529 95.12175354 -32.06312561 94.33377075 C-32.08281038 91.80633434 -32.0945125 89.27895732 -32.10449219 86.75146484 C-32.10856771 85.88500965 -32.11264324 85.01855446 -32.11684227 84.12584305 C-32.13768582 79.53669729 -32.15199307 74.94758125 -32.16137695 70.35839844 C-32.17241769 65.63762069 -32.20679536 60.91731735 -32.24654865 56.19670677 C-32.27280174 52.55049819 -32.28107663 48.90440099 -32.28465843 45.25810623 C-32.28950457 43.51911858 -32.30106178 41.78013525 -32.31969643 40.04124069 C-32.43812733 28.25409155 -32.02944431 17.8800752 -23.56933594 8.82177734 C-16.62900593 2.58184761 -9.30648445 -0.01186749 0 0 Z " fill="#91AF72" transform="translate(704.8662109375,222.70947265625)"/>
<path d="M0 0 C1.14764832 -0.01007584 1.14764832 -0.01007584 2.31848145 -0.02035522 C4.83510935 -0.03927297 7.35146957 -0.04325652 9.86816406 -0.04541016 C11.6292532 -0.0518434 13.39034128 -0.05857215 15.15142822 -0.06558228 C18.83990962 -0.07754021 22.52829747 -0.08126473 26.21679688 -0.08007812 C30.92185908 -0.07987525 35.62631514 -0.10715128 40.33123398 -0.14162254 C43.96887923 -0.16396434 47.60638041 -0.16791341 51.24408722 -0.16685867 C52.97748143 -0.16920469 54.71088021 -0.17797133 56.44420624 -0.19352341 C68.07886889 -0.28812522 78.55857118 0.11105955 87.53222656 8.44677734 C93.90695286 15.78548664 96.27503124 22.38142552 96.31079102 31.9296875 C96.31736221 32.69449432 96.32393341 33.45930115 96.33070374 34.24728394 C96.35038851 36.77472034 96.36209063 39.30209736 96.37207031 41.82958984 C96.37614584 42.69604504 96.38022137 43.56250023 96.38442039 44.45521164 C96.40526394 49.0443574 96.41957119 53.63347343 96.42895508 58.22265625 C96.43999582 62.943434 96.47437349 67.66373734 96.51412678 72.38434792 C96.54037986 76.03055649 96.54865476 79.6766537 96.55223656 83.32294846 C96.5570827 85.0619361 96.5686399 86.80091944 96.58727455 88.539814 C96.70570545 100.32696313 96.29702244 110.70097949 87.83691406 119.75927734 C80.89658406 125.99920707 73.57406258 128.59292218 64.26757812 128.58105469 C63.50247925 128.58777191 62.73738037 128.59448914 61.94909668 128.60140991 C59.43246878 128.62032766 56.91610855 128.62431121 54.39941406 128.62646484 C52.63832492 128.63289809 50.87723684 128.63962684 49.1161499 128.64663696 C45.42766851 128.6585949 41.73928065 128.66231942 38.05078125 128.66113281 C33.34571905 128.66092994 28.64126298 128.68820597 23.93634415 128.72267723 C20.2986989 128.74501902 16.66119771 128.7489681 13.02349091 128.74791336 C11.2900967 128.75025937 9.55669791 128.75902602 7.82337189 128.77457809 C-3.81129077 128.8691799 -14.29099306 128.46999514 -23.26464844 120.13427734 C-29.63937473 112.79556805 -32.00745311 106.19962917 -32.04321289 96.65136719 C-32.04978409 95.88656036 -32.05635529 95.12175354 -32.06312561 94.33377075 C-32.08281038 91.80633434 -32.0945125 89.27895732 -32.10449219 86.75146484 C-32.10856771 85.88500965 -32.11264324 85.01855446 -32.11684227 84.12584305 C-32.13768582 79.53669729 -32.15199307 74.94758125 -32.16137695 70.35839844 C-32.17241769 65.63762069 -32.20679536 60.91731735 -32.24654865 56.19670677 C-32.27280174 52.55049819 -32.28107663 48.90440099 -32.28465843 45.25810623 C-32.28950457 43.51911858 -32.30106178 41.78013525 -32.31969643 40.04124069 C-32.43812733 28.25409155 -32.02944431 17.8800752 -23.56933594 8.82177734 C-16.62900593 2.58184761 -9.30648445 -0.01186749 0 0 Z " fill="#91AF72" transform="translate(554.8662109375,222.70947265625)"/>
<path d="M0 0 C1.14764832 -0.01007584 1.14764832 -0.01007584 2.31848145 -0.02035522 C4.83510935 -0.03927297 7.35146957 -0.04325652 9.86816406 -0.04541016 C11.6292532 -0.0518434 13.39034128 -0.05857215 15.15142822 -0.06558228 C18.83990962 -0.07754021 22.52829747 -0.08126473 26.21679688 -0.08007812 C30.92185908 -0.07987525 35.62631514 -0.10715128 40.33123398 -0.14162254 C43.96887923 -0.16396434 47.60638041 -0.16791341 51.24408722 -0.16685867 C52.97748143 -0.16920469 54.71088021 -0.17797133 56.44420624 -0.19352341 C68.07886889 -0.28812522 78.55857118 0.11105955 87.53222656 8.44677734 C93.90695286 15.78548664 96.27503124 22.38142552 96.31079102 31.9296875 C96.31736221 32.69449432 96.32393341 33.45930115 96.33070374 34.24728394 C96.35038851 36.77472034 96.36209063 39.30209736 96.37207031 41.82958984 C96.37614584 42.69604504 96.38022137 43.56250023 96.38442039 44.45521164 C96.40526394 49.0443574 96.41957119 53.63347343 96.42895508 58.22265625 C96.43999582 62.943434 96.47437349 67.66373734 96.51412678 72.38434792 C96.54037986 76.03055649 96.54865476 79.6766537 96.55223656 83.32294846 C96.5570827 85.0619361 96.5686399 86.80091944 96.58727455 88.539814 C96.70570545 100.32696313 96.29702244 110.70097949 87.83691406 119.75927734 C80.89658406 125.99920707 73.57406258 128.59292218 64.26757812 128.58105469 C63.50247925 128.58777191 62.73738037 128.59448914 61.94909668 128.60140991 C59.43246878 128.62032766 56.91610855 128.62431121 54.39941406 128.62646484 C52.63832492 128.63289809 50.87723684 128.63962684 49.1161499 128.64663696 C45.42766851 128.6585949 41.73928065 128.66231942 38.05078125 128.66113281 C33.34571905 128.66092994 28.64126298 128.68820597 23.93634415 128.72267723 C20.2986989 128.74501902 16.66119771 128.7489681 13.02349091 128.74791336 C11.2900967 128.75025937 9.55669791 128.75902602 7.82337189 128.77457809 C-3.81129077 128.8691799 -14.29099306 128.46999514 -23.26464844 120.13427734 C-29.63937473 112.79556805 -32.00745311 106.19962917 -32.04321289 96.65136719 C-32.04978409 95.88656036 -32.05635529 95.12175354 -32.06312561 94.33377075 C-32.08281038 91.80633434 -32.0945125 89.27895732 -32.10449219 86.75146484 C-32.10856771 85.88500965 -32.11264324 85.01855446 -32.11684227 84.12584305 C-32.13768582 79.53669729 -32.15199307 74.94758125 -32.16137695 70.35839844 C-32.17241769 65.63762069 -32.20679536 60.91731735 -32.24654865 56.19670677 C-32.27280174 52.55049819 -32.28107663 48.90440099 -32.28465843 45.25810623 C-32.28950457 43.51911858 -32.30106178 41.78013525 -32.31969643 40.04124069 C-32.43812733 28.25409155 -32.02944431 17.8800752 -23.56933594 8.82177734 C-16.62900593 2.58184761 -9.30648445 -0.01186749 0 0 Z " fill="#1E332D" transform="translate(404.8662109375,222.70947265625)"/>
<path d="M0 0 C1.14764832 -0.01007584 1.14764832 -0.01007584 2.31848145 -0.02035522 C4.83510935 -0.03927297 7.35146957 -0.04325652 9.86816406 -0.04541016 C11.6292532 -0.0518434 13.39034128 -0.05857215 15.15142822 -0.06558228 C18.83990962 -0.07754021 22.52829747 -0.08126473 26.21679688 -0.08007812 C30.92185908 -0.07987525 35.62631514 -0.10715128 40.33123398 -0.14162254 C43.96887923 -0.16396434 47.60638041 -0.16791341 51.24408722 -0.16685867 C52.97748143 -0.16920469 54.71088021 -0.17797133 56.44420624 -0.19352341 C68.07886889 -0.28812522 78.55857118 0.11105955 87.53222656 8.44677734 C93.90695286 15.78548664 96.27503124 22.38142552 96.31079102 31.9296875 C96.31736221 32.69449432 96.32393341 33.45930115 96.33070374 34.24728394 C96.35038851 36.77472034 96.36209063 39.30209736 96.37207031 41.82958984 C96.37614584 42.69604504 96.38022137 43.56250023 96.38442039 44.45521164 C96.40526394 49.0443574 96.41957119 53.63347343 96.42895508 58.22265625 C96.43999582 62.943434 96.47437349 67.66373734 96.51412678 72.38434792 C96.54037986 76.03055649 96.54865476 79.6766537 96.55223656 83.32294846 C96.5570827 85.0619361 96.5686399 86.80091944 96.58727455 88.539814 C96.70570545 100.32696313 96.29702244 110.70097949 87.83691406 119.75927734 C80.89658406 125.99920707 73.57406258 128.59292218 64.26757812 128.58105469 C63.50247925 128.58777191 62.73738037 128.59448914 61.94909668 128.60140991 C59.43246878 128.62032766 56.91610855 128.62431121 54.39941406 128.62646484 C52.63832492 128.63289809 50.87723684 128.63962684 49.1161499 128.64663696 C45.42766851 128.6585949 41.73928065 128.66231942 38.05078125 128.66113281 C33.34571905 128.66092994 28.64126298 128.68820597 23.93634415 128.72267723 C20.2986989 128.74501902 16.66119771 128.7489681 13.02349091 128.74791336 C11.2900967 128.75025937 9.55669791 128.75902602 7.82337189 128.77457809 C-3.81129077 128.8691799 -14.29099306 128.46999514 -23.26464844 120.13427734 C-29.63937473 112.79556805 -32.00745311 106.19962917 -32.04321289 96.65136719 C-32.04978409 95.88656036 -32.05635529 95.12175354 -32.06312561 94.33377075 C-32.08281038 91.80633434 -32.0945125 89.27895732 -32.10449219 86.75146484 C-32.10856771 85.88500965 -32.11264324 85.01855446 -32.11684227 84.12584305 C-32.13768582 79.53669729 -32.15199307 74.94758125 -32.16137695 70.35839844 C-32.17241769 65.63762069 -32.20679536 60.91731735 -32.24654865 56.19670677 C-32.27280174 52.55049819 -32.28107663 48.90440099 -32.28465843 45.25810623 C-32.28950457 43.51911858 -32.30106178 41.78013525 -32.31969643 40.04124069 C-32.43812733 28.25409155 -32.02944431 17.8800752 -23.56933594 8.82177734 C-16.62900593 2.58184761 -9.30648445 -0.01186749 0 0 Z " fill="#1E332D" transform="translate(254.8662109375,222.70947265625)"/>
<path d="M0 0 C1.14764832 -0.01007584 1.14764832 -0.01007584 2.31848145 -0.02035522 C4.83510935 -0.03927297 7.35146957 -0.04325652 9.86816406 -0.04541016 C11.6292532 -0.0518434 13.39034128 -0.05857215 15.15142822 -0.06558228 C18.83990962 -0.07754021 22.52829747 -0.08126473 26.21679688 -0.08007812 C30.92185908 -0.07987525 35.62631514 -0.10715128 40.33123398 -0.14162254 C43.96887923 -0.16396434 47.60638041 -0.16791341 51.24408722 -0.16685867 C52.97748143 -0.16920469 54.71088021 -0.17797133 56.44420624 -0.19352341 C68.07886889 -0.28812522 78.55857118 0.11105955 87.53222656 8.44677734 C93.90695286 15.78548664 96.27503124 22.38142552 96.31079102 31.9296875 C96.31736221 32.69449432 96.32393341 33.45930115 96.33070374 34.24728394 C96.35038851 36.77472034 96.36209063 39.30209736 96.37207031 41.82958984 C96.37614584 42.69604504 96.38022137 43.56250023 96.38442039 44.45521164 C96.40526394 49.0443574 96.41957119 53.63347343 96.42895508 58.22265625 C96.43999582 62.943434 96.47437349 67.66373734 96.51412678 72.38434792 C96.54037986 76.03055649 96.54865476 79.6766537 96.55223656 83.32294846 C96.5570827 85.0619361 96.5686399 86.80091944 96.58727455 88.539814 C96.70570545 100.32696313 96.29702244 110.70097949 87.83691406 119.75927734 C80.89658406 125.99920707 73.57406258 128.59292218 64.26757812 128.58105469 C63.50247925 128.58777191 62.73738037 128.59448914 61.94909668 128.60140991 C59.43246878 128.62032766 56.91610855 128.62431121 54.39941406 128.62646484 C52.63832492 128.63289809 50.87723684 128.63962684 49.1161499 128.64663696 C45.42766851 128.6585949 41.73928065 128.66231942 38.05078125 128.66113281 C33.34571905 128.66092994 28.64126298 128.68820597 23.93634415 128.72267723 C20.2986989 128.74501902 16.66119771 128.7489681 13.02349091 128.74791336 C11.2900967 128.75025937 9.55669791 128.75902602 7.82337189 128.77457809 C-3.81129077 128.8691799 -14.29099306 128.46999514 -23.26464844 120.13427734 C-29.63937473 112.79556805 -32.00745311 106.19962917 -32.04321289 96.65136719 C-32.04978409 95.88656036 -32.05635529 95.12175354 -32.06312561 94.33377075 C-32.08281038 91.80633434 -32.0945125 89.27895732 -32.10449219 86.75146484 C-32.10856771 85.88500965 -32.11264324 85.01855446 -32.11684227 84.12584305 C-32.13768582 79.53669729 -32.15199307 74.94758125 -32.16137695 70.35839844 C-32.17241769 65.63762069 -32.20679536 60.91731735 -32.24654865 56.19670677 C-32.27280174 52.55049819 -32.28107663 48.90440099 -32.28465843 45.25810623 C-32.28950457 43.51911858 -32.30106178 41.78013525 -32.31969643 40.04124069 C-32.43812733 28.25409155 -32.02944431 17.8800752 -23.56933594 8.82177734 C-16.62900593 2.58184761 -9.30648445 -0.01186749 0 0 Z " fill="#91AF72" transform="translate(704.8662109375,72.70947265625)"/>
<path d="M0 0 C1.14764832 -0.01007584 1.14764832 -0.01007584 2.31848145 -0.02035522 C4.83510935 -0.03927297 7.35146957 -0.04325652 9.86816406 -0.04541016 C11.6292532 -0.0518434 13.39034128 -0.05857215 15.15142822 -0.06558228 C18.83990962 -0.07754021 22.52829747 -0.08126473 26.21679688 -0.08007812 C30.92185908 -0.07987525 35.62631514 -0.10715128 40.33123398 -0.14162254 C43.96887923 -0.16396434 47.60638041 -0.16791341 51.24408722 -0.16685867 C52.97748143 -0.16920469 54.71088021 -0.17797133 56.44420624 -0.19352341 C68.07886889 -0.28812522 78.55857118 0.11105955 87.53222656 8.44677734 C93.90695286 15.78548664 96.27503124 22.38142552 96.31079102 31.9296875 C96.31736221 32.69449432 96.32393341 33.45930115 96.33070374 34.24728394 C96.35038851 36.77472034 96.36209063 39.30209736 96.37207031 41.82958984 C96.37614584 42.69604504 96.38022137 43.56250023 96.38442039 44.45521164 C96.40526394 49.0443574 96.41957119 53.63347343 96.42895508 58.22265625 C96.43999582 62.943434 96.47437349 67.66373734 96.51412678 72.38434792 C96.54037986 76.03055649 96.54865476 79.6766537 96.55223656 83.32294846 C96.5570827 85.0619361 96.5686399 86.80091944 96.58727455 88.539814 C96.70570545 100.32696313 96.29702244 110.70097949 87.83691406 119.75927734 C80.89658406 125.99920707 73.57406258 128.59292218 64.26757812 128.58105469 C63.50247925 128.58777191 62.73738037 128.59448914 61.94909668 128.60140991 C59.43246878 128.62032766 56.91610855 128.62431121 54.39941406 128.62646484 C52.63832492 128.63289809 50.87723684 128.63962684 49.1161499 128.64663696 C45.42766851 128.6585949 41.73928065 128.66231942 38.05078125 128.66113281 C33.34571905 128.66092994 28.64126298 128.68820597 23.93634415 128.72267723 C20.2986989 128.74501902 16.66119771 128.7489681 13.02349091 128.74791336 C11.2900967 128.75025937 9.55669791 128.75902602 7.82337189 128.77457809 C-3.81129077 128.8691799 -14.29099306 128.46999514 -23.26464844 120.13427734 C-29.63937473 112.79556805 -32.00745311 106.19962917 -32.04321289 96.65136719 C-32.04978409 95.88656036 -32.05635529 95.12175354 -32.06312561 94.33377075 C-32.08281038 91.80633434 -32.0945125 89.27895732 -32.10449219 86.75146484 C-32.10856771 85.88500965 -32.11264324 85.01855446 -32.11684227 84.12584305 C-32.13768582 79.53669729 -32.15199307 74.94758125 -32.16137695 70.35839844 C-32.17241769 65.63762069 -32.20679536 60.91731735 -32.24654865 56.19670677 C-32.27280174 52.55049819 -32.28107663 48.90440099 -32.28465843 45.25810623 C-32.28950457 43.51911858 -32.30106178 41.78013525 -32.31969643 40.04124069 C-32.43812733 28.25409155 -32.02944431 17.8800752 -23.56933594 8.82177734 C-16.62900593 2.58184761 -9.30648445 -0.01186749 0 0 Z " fill="#648557" transform="translate(554.8662109375,72.70947265625)"/>
<path d="M0 0 C1.14764832 -0.01007584 1.14764832 -0.01007584 2.31848145 -0.02035522 C4.83510935 -0.03927297 7.35146957 -0.04325652 9.86816406 -0.04541016 C11.6292532 -0.0518434 13.39034128 -0.05857215 15.15142822 -0.06558228 C18.83990962 -0.07754021 22.52829747 -0.08126473 26.21679688 -0.08007812 C30.92185908 -0.07987525 35.62631514 -0.10715128 40.33123398 -0.14162254 C43.96887923 -0.16396434 47.60638041 -0.16791341 51.24408722 -0.16685867 C52.97748143 -0.16920469 54.71088021 -0.17797133 56.44420624 -0.19352341 C68.07886889 -0.28812522 78.55857118 0.11105955 87.53222656 8.44677734 C93.90695286 15.78548664 96.27503124 22.38142552 96.31079102 31.9296875 C96.31736221 32.69449432 96.32393341 33.45930115 96.33070374 34.24728394 C96.35038851 36.77472034 96.36209063 39.30209736 96.37207031 41.82958984 C96.37614584 42.69604504 96.38022137 43.56250023 96.38442039 44.45521164 C96.40526394 49.0443574 96.41957119 53.63347343 96.42895508 58.22265625 C96.43999582 62.943434 96.47437349 67.66373734 96.51412678 72.38434792 C96.54037986 76.03055649 96.54865476 79.6766537 96.55223656 83.32294846 C96.5570827 85.0619361 96.5686399 86.80091944 96.58727455 88.539814 C96.70570545 100.32696313 96.29702244 110.70097949 87.83691406 119.75927734 C80.89658406 125.99920707 73.57406258 128.59292218 64.26757812 128.58105469 C63.50247925 128.58777191 62.73738037 128.59448914 61.94909668 128.60140991 C59.43246878 128.62032766 56.91610855 128.62431121 54.39941406 128.62646484 C52.63832492 128.63289809 50.87723684 128.63962684 49.1161499 128.64663696 C45.42766851 128.6585949 41.73928065 128.66231942 38.05078125 128.66113281 C33.34571905 128.66092994 28.64126298 128.68820597 23.93634415 128.72267723 C20.2986989 128.74501902 16.66119771 128.7489681 13.02349091 128.74791336 C11.2900967 128.75025937 9.55669791 128.75902602 7.82337189 128.77457809 C-3.81129077 128.8691799 -14.29099306 128.46999514 -23.26464844 120.13427734 C-29.63937473 112.79556805 -32.00745311 106.19962917 -32.04321289 96.65136719 C-32.04978409 95.88656036 -32.05635529 95.12175354 -32.06312561 94.33377075 C-32.08281038 91.80633434 -32.0945125 89.27895732 -32.10449219 86.75146484 C-32.10856771 85.88500965 -32.11264324 85.01855446 -32.11684227 84.12584305 C-32.13768582 79.53669729 -32.15199307 74.94758125 -32.16137695 70.35839844 C-32.17241769 65.63762069 -32.20679536 60.91731735 -32.24654865 56.19670677 C-32.27280174 52.55049819 -32.28107663 48.90440099 -32.28465843 45.25810623 C-32.28950457 43.51911858 -32.30106178 41.78013525 -32.31969643 40.04124069 C-32.43812733 28.25409155 -32.02944431 17.8800752 -23.56933594 8.82177734 C-16.62900593 2.58184761 -9.30648445 -0.01186749 0 0 Z " fill="#1E332D" transform="translate(404.8662109375,72.70947265625)"/>
<path d="M0 0 C1.14764832 -0.01007584 1.14764832 -0.01007584 2.31848145 -0.02035522 C4.83510935 -0.03927297 7.35146957 -0.04325652 9.86816406 -0.04541016 C11.6292532 -0.0518434 13.39034128 -0.05857215 15.15142822 -0.06558228 C18.83990962 -0.07754021 22.52829747 -0.08126473 26.21679688 -0.08007812 C30.92185908 -0.07987525 35.62631514 -0.10715128 40.33123398 -0.14162254 C43.96887923 -0.16396434 47.60638041 -0.16791341 51.24408722 -0.16685867 C52.97748143 -0.16920469 54.71088021 -0.17797133 56.44420624 -0.19352341 C68.07886889 -0.28812522 78.55857118 0.11105955 87.53222656 8.44677734 C93.90695286 15.78548664 96.27503124 22.38142552 96.31079102 31.9296875 C96.31736221 32.69449432 96.32393341 33.45930115 96.33070374 34.24728394 C96.35038851 36.77472034 96.36209063 39.30209736 96.37207031 41.82958984 C96.37614584 42.69604504 96.38022137 43.56250023 96.38442039 44.45521164 C96.40526394 49.0443574 96.41957119 53.63347343 96.42895508 58.22265625 C96.43999582 62.943434 96.47437349 67.66373734 96.51412678 72.38434792 C96.54037986 76.03055649 96.54865476 79.6766537 96.55223656 83.32294846 C96.5570827 85.0619361 96.5686399 86.80091944 96.58727455 88.539814 C96.70570545 100.32696313 96.29702244 110.70097949 87.83691406 119.75927734 C80.89658406 125.99920707 73.57406258 128.59292218 64.26757812 128.58105469 C63.50247925 128.58777191 62.73738037 128.59448914 61.94909668 128.60140991 C59.43246878 128.62032766 56.91610855 128.62431121 54.39941406 128.62646484 C52.63832492 128.63289809 50.87723684 128.63962684 49.1161499 128.64663696 C45.42766851 128.6585949 41.73928065 128.66231942 38.05078125 128.66113281 C33.34571905 128.66092994 28.64126298 128.68820597 23.93634415 128.72267723 C20.2986989 128.74501902 16.66119771 128.7489681 13.02349091 128.74791336 C11.2900967 128.75025937 9.55669791 128.75902602 7.82337189 128.77457809 C-3.81129077 128.8691799 -14.29099306 128.46999514 -23.26464844 120.13427734 C-29.63937473 112.79556805 -32.00745311 106.19962917 -32.04321289 96.65136719 C-32.04978409 95.88656036 -32.05635529 95.12175354 -32.06312561 94.33377075 C-32.08281038 91.80633434 -32.0945125 89.27895732 -32.10449219 86.75146484 C-32.10856771 85.88500965 -32.11264324 85.01855446 -32.11684227 84.12584305 C-32.13768582 79.53669729 -32.15199307 74.94758125 -32.16137695 70.35839844 C-32.17241769 65.63762069 -32.20679536 60.91731735 -32.24654865 56.19670677 C-32.27280174 52.55049819 -32.28107663 48.90440099 -32.28465843 45.25810623 C-32.28950457 43.51911858 -32.30106178 41.78013525 -32.31969643 40.04124069 C-32.43812733 28.25409155 -32.02944431 17.8800752 -23.56933594 8.82177734 C-16.62900593 2.58184761 -9.30648445 -0.01186749 0 0 Z " fill="#1E332D" transform="translate(254.8662109375,72.70947265625)"/>
<path d="M0 0 C13.86 0 27.72 0 42 0 C46.29 15.84 50.58 31.68 55 48 C60.10942016 30.13531479 60.10942016 30.13531479 64.875 12.1875 C65.90625 8.165625 66.9375 4.14375 68 0 C81.86 0 95.72 0 110 0 C110 33.33 110 66.66 110 101 C100.1 101 90.2 101 80 101 C79.67 80.87 79.34 60.74 79 40 C74.10737242 58.95246254 74.10737242 58.95246254 69.21704102 77.90551758 C68.60441286 80.27687703 67.99170665 82.64821631 67.37890625 85.01953125 C67.06014526 86.25650757 66.74138428 87.49348389 66.41296387 88.76794434 C66.1085437 89.94514038 65.80412354 91.12233643 65.49047852 92.33520508 C65.22622574 93.35890701 64.96197296 94.38260895 64.68971252 95.43733215 C64.18607622 97.30862274 63.61281139 99.16156583 63 101 C56.07 101 49.14 101 42 101 C33.585 69.815 33.585 69.815 25 38 C24.67 58.79 24.34 79.58 24 101 C16.08 101 8.16 101 0 101 C0 67.67 0 34.34 0 0 Z " fill="#000000" transform="translate(512,701)"/>
<path d="M0 0 C0.98162109 -0.01611328 1.96324219 -0.03222656 2.97460938 -0.04882812 C14.64142082 -0.05654938 24.14777373 3.07003401 32.6640625 11.19921875 C40.07539215 19.22553107 41.95310482 26.37491927 44.6875 37.3125 C34.4575 38.3025 24.2275 39.2925 13.6875 40.3125 C11.7075 34.8675 11.7075 34.8675 9.6875 29.3125 C7.39826773 26.50001464 6.08022087 25.57125688 2.54296875 24.9140625 C-1.6105018 24.62476604 -3.71459836 24.89656842 -7.1875 27.3125 C-14.74902897 37.98759972 -14.54160148 52.38941683 -12.81640625 64.9140625 C-11.52049667 70.81521009 -10.22129279 74.66237203 -5.3125 78.3125 C-1.60259888 80.16745056 2.63813037 79.75959128 6.6875 79.3125 C11.96359415 76.50606694 12.14224258 74.25143398 14.6875 68.3125 C9.4075 68.3125 4.1275 68.3125 -1.3125 68.3125 C-1.3125 61.0525 -1.3125 53.7925 -1.3125 46.3125 C13.8675 46.3125 29.0475 46.3125 44.6875 46.3125 C44.6875 65.1225 44.6875 83.9325 44.6875 103.3125 C39.4075 103.3125 34.1275 103.3125 28.6875 103.3125 C27.3675 100.6725 26.0475 98.0325 24.6875 95.3125 C24.130625 95.71082031 23.57375 96.10914063 23 96.51953125 C22.236875 97.04933594 21.47375 97.57914063 20.6875 98.125 C19.945 98.64707031 19.2025 99.16914062 18.4375 99.70703125 C11.48866597 103.76380793 5.38221005 104.84122963 -2.625 104.75 C-3.55272217 104.74242676 -4.48044434 104.73485352 -5.4362793 104.72705078 C-18.65485063 104.40925763 -27.47317796 99.5560081 -36.5 90.125 C-48.1356363 76.52342123 -48.48583352 59.33633902 -47.3125 42.3125 C-45.73758348 29.60390969 -39.86640048 17.74174153 -30.484375 8.99609375 C-21.29695385 1.87418995 -11.35763938 -0.03685152 0 0 Z " fill="#000000" transform="translate(357.3125,698.6875)"/>
<path d="M0 0 C0.96454102 0.00829834 1.92908203 0.01659668 2.92285156 0.02514648 C16.66587397 0.35054161 27.28971809 5.120654 36.875 15.0625 C47.2999407 27.80409418 49.26748117 43.56322934 48.125 59.4375 C46.57633859 72.57296448 41.67516106 85.35297644 31.796875 94.46484375 C18.44226062 104.32461022 5.2690345 105.51497285 -10.875 104.4375 C-22.75376802 102.39198601 -32.94377324 95.20503439 -39.875 85.4375 C-49.05251068 70.65845691 -50.44334333 51.56790268 -46.75 34.75 C-42.80623493 21.98320704 -35.24987436 11.57374918 -23.7578125 4.7265625 C-15.89607204 1.2111501 -8.58509902 -0.09567459 0 0 Z M-8.58984375 27.54296875 C-16.0735627 38.57519881 -15.14103236 54.4194541 -13.3671875 67.0546875 C-12.06325789 72.58514756 -10.34276638 75.91031602 -5.875 79.4375 C-5.545 79.7675 -5.215 80.0975 -4.875 80.4375 C0.0498713 81.07590924 3.88538667 81.28149205 8.0625 78.4375 C15.83860126 67.12680725 15.62871852 51.00108964 13.375 37.9375 C12.05414398 32.3168361 10.05309402 27.72289601 5.125 24.4375 C0.08726842 23.52591048 -4.79508287 23.70592641 -8.58984375 27.54296875 Z " fill="#000000" transform="translate(302.875,823.5625)"/>
<path d="M0 0 C25.08 0 50.16 0 76 0 C76 7.92 76 15.84 76 24 C61.15 24 46.3 24 31 24 C31 28.29 31 32.58 31 37 C43.21 37 55.42 37 68 37 C68 44.92 68 52.84 68 61 C55.79 61 43.58 61 31 61 C31 66.28 31 71.56 31 77 C45.85 77 60.7 77 76 77 C76 84.92 76 92.84 76 101 C50.92 101 25.84 101 0 101 C0 67.67 0 34.34 0 0 Z " fill="#000000" transform="translate(693,826)"/>
<path d="M0 0 C25.08 0 50.16 0 76 0 C76 7.92 76 15.84 76 24 C61.15 24 46.3 24 31 24 C31 28.29 31 32.58 31 37 C43.21 37 55.42 37 68 37 C68 44.92 68 52.84 68 61 C55.79 61 43.58 61 31 61 C31 66.28 31 71.56 31 77 C45.85 77 60.7 77 76 77 C76 84.92 76 92.84 76 101 C50.92 101 25.84 101 0 101 C0 67.67 0 34.34 0 0 Z " fill="#000000" transform="translate(638,701)"/>
<path d="M0 0 C1.43352212 0.00015908 2.86704998 0.00585132 4.30053711 0.01586914 C5.43041298 0.01799156 5.43041298 0.01799156 6.58311462 0.02015686 C8.99807646 0.02577163 11.41294687 0.03832656 13.82788086 0.05102539 C15.46134307 0.05603849 17.09480672 0.06060173 18.72827148 0.06469727 C22.74067671 0.07574585 26.75301326 0.09302033 30.76538086 0.11352539 C33.47904364 8.73933499 36.19208136 17.36534089 38.90440273 25.99157238 C40.16498721 30.00065625 41.4257569 34.00968165 42.68701172 38.01855469 C45.81989505 47.97676226 48.94821213 57.93638969 52.07064056 67.89788055 C52.76338348 70.10715542 53.45685769 72.31619971 54.15045166 74.52520752 C55.23255802 77.97262589 56.31161877 81.42098311 57.3882618 84.87011147 C57.97487071 86.74717605 58.56423953 88.62337741 59.15367126 90.4995575 C59.499991 91.6113588 59.84631073 92.7231601 60.203125 93.86865234 C60.5065834 94.8388179 60.81004181 95.80898346 61.12269592 96.80854797 C61.76538086 99.11352539 61.76538086 99.11352539 61.76538086 101.11352539 C50.87538086 101.11352539 39.98538086 101.11352539 28.76538086 101.11352539 C27.94038086 98.18477539 27.11538086 95.25602539 26.26538086 92.23852539 C26.0043457 91.31700684 25.74331055 90.39548828 25.47436523 89.44604492 C25.27133789 88.7201416 25.06831055 87.99423828 24.85913086 87.24633789 C24.6496582 86.50270996 24.44018555 85.75908203 24.22436523 84.99291992 C23.76538086 83.11352539 23.76538086 83.11352539 23.76538086 81.11352539 C15.18538086 81.44352539 6.60538086 81.77352539 -2.23461914 82.11352539 C-4.21461914 88.38352539 -6.19461914 94.65352539 -8.23461914 101.11352539 C-16.81461914 101.11352539 -25.39461914 101.11352539 -34.23461914 101.11352539 C-31.98475313 89.86419534 -31.98475313 89.86419534 -30.19091797 84.19287109 C-29.99704498 83.57486633 -29.803172 82.95686157 -29.60342407 82.32012939 C-28.97101624 80.3082891 -28.33136362 78.2988346 -27.69165039 76.28930664 C-27.23996527 74.85669566 -26.78877858 73.42392745 -26.33805847 71.99101257 C-25.15339305 68.2288572 -23.96272258 64.46863112 -22.77050781 60.7088623 C-20.88408868 54.75578701 -19.00752984 48.79959029 -17.12939072 42.84389877 C-16.44596904 40.67799334 -15.76139048 38.51245602 -15.07669067 36.34695435 C-12.06086008 26.7985119 -9.10998411 17.23220244 -6.26094055 7.63240051 C-5.87605721 6.347248 -5.87605721 6.347248 -5.48339844 5.03613281 C-5.26419235 4.29618576 -5.04498627 3.55623871 -4.81913757 2.79386902 C-3.76998523 -0.22218035 -3.44150242 0.12078637 0 0 Z M9.76538086 32.11352539 C8.75917117 35.71598802 7.76148499 39.32075662 6.76538086 42.92602539 C6.47920898 43.95018555 6.19303711 44.9743457 5.89819336 46.02954102 C5.62749023 47.01245117 5.35678711 47.99536133 5.07788086 49.00805664 C4.82651367 49.91402588 4.57514648 50.81999512 4.31616211 51.75341797 C3.65174854 54.19652129 3.65174854 54.19652129 3.76538086 57.11352539 C8.38538086 57.11352539 13.00538086 57.11352539 17.76538086 57.11352539 C16.81540163 53.3195832 15.85584354 49.52852772 14.89038086 45.73852539 C14.48625977 44.11817383 14.48625977 44.11817383 14.07397461 42.46508789 C13.8097168 41.43383789 13.54545898 40.40258789 13.27319336 39.34008789 C13.0322998 38.3869873 12.79140625 37.43388672 12.54321289 36.4519043 C11.90701675 33.95664533 11.90701675 33.95664533 9.76538086 32.11352539 Z " fill="#000000" transform="translate(442.234619140625,700.886474609375)"/>
<path d="M0 0 C24.09 0 48.18 0 73 0 C73 7.92 73 15.84 73 24 C59.14 24 45.28 24 31 24 C31 29.28 31 34.56 31 40 C41.89 40 52.78 40 64 40 C64 47.92 64 55.84 64 64 C53.11 64 42.22 64 31 64 C31 76.21 31 88.42 31 101 C20.77 101 10.54 101 0 101 C0 67.67 0 34.34 0 0 Z " fill="#000000" transform="translate(611,826)"/>
<path d="M0 0 C24.09 0 48.18 0 73 0 C73 7.92 73 15.84 73 24 C59.14 24 45.28 24 31 24 C31 29.28 31 34.56 31 40 C41.89 40 52.78 40 64 40 C64 47.92 64 55.84 64 64 C53.11 64 42.22 64 31 64 C31 76.21 31 88.42 31 101 C20.77 101 10.54 101 0 101 C0 67.67 0 34.34 0 0 Z " fill="#000000" transform="translate(362,826)"/>
<path d="M0 0 C10.56 0 21.12 0 32 0 C32 24.75 32 49.5 32 75 C44.87 75 57.74 75 71 75 C71 83.58 71 92.16 71 101 C47.57 101 24.14 101 0 101 C0 67.67 0 34.34 0 0 Z " fill="#000000" transform="translate(482,826)"/>
<path d="M0 0 C10.56 0 21.12 0 32 0 C32 33.33 32 66.66 32 101 C21.44 101 10.88 101 0 101 C0 67.67 0 34.34 0 0 Z " fill="#000000" transform="translate(563,826)"/>
<path d="M0 0 C0.66 0.33 1.32 0.66 2 1 C-1.63 4.63 -5.26 8.26 -9 12 C-9 7.8407692 -6.75316432 5.85455565 -4 3 C-1.6875 1.125 -1.6875 1.125 0 0 Z " fill="#162521" transform="translate(237,377)"/>
<path d="M0 0 C0.66 0.33 1.32 0.66 2 1 C-1.63 4.63 -5.26 8.26 -9 12 C-9 7.8407692 -6.75316432 5.85455565 -4 3 C-1.6875 1.125 -1.6875 1.125 0 0 Z " fill="#162521" transform="translate(387,227)"/>
<path d="M0 0 C0.66 0.33 1.32 0.66 2 1 C-1.63 4.63 -5.26 8.26 -9 12 C-9 7.8407692 -6.75316432 5.85455565 -4 3 C-1.6875 1.125 -1.6875 1.125 0 0 Z " fill="#162521" transform="translate(237,227)"/>
<path d="M0 0 C0.66 0.33 1.32 0.66 2 1 C-1.63 4.63 -5.26 8.26 -9 12 C-9 7.8407692 -6.75316432 5.85455565 -4 3 C-1.6875 1.125 -1.6875 1.125 0 0 Z " fill="#162521" transform="translate(387,77)"/>
<path d="M0 0 C0.66 0.33 1.32 0.66 2 1 C-1.63 4.63 -5.26 8.26 -9 12 C-9 7.8407692 -6.75316432 5.85455565 -4 3 C-1.6875 1.125 -1.6875 1.125 0 0 Z " fill="#162521" transform="translate(237,77)"/>
</svg>
